<?xml version="1.0" encoding="utf-8"?>
<!-- Generator: Adobe Illustrator 25.0.0, SVG Export Plug-In . SVG Version: 6.00 Build 0)  -->
<svg version="1.1" id="Layer_1" xmlns="http://www.w3.org/2000/svg" xmlns:xlink="http://www.w3.org/1999/xlink" x="0px" y="0px"
	 viewBox="0 0 114 66" style="enable-background:new 0 0 114 66;" xml:space="preserve">
<style type="text/css">
	.st0{display:none;clip-path:url(#SVGID_2_);}
	.st1{display:inline;}
	.st2{clip-path:url(#SVGID_4_);}
	.st3{clip-path:url(#SVGID_6_);}
	.st4{clip-path:url(#SVGID_8_);}
	.st5{fill:#505E33;}
	.st6{fill:#505E33;stroke:#FFFFFF;stroke-width:0.3;stroke-miterlimit:10;}
	.st7{clip-path:url(#SVGID_10_);}
</style>
<desc>Created using Figma</desc>
<g id="Canvas" transform="translate(-5144 -2500)">
	<g>
		<g>
			<defs>
				<rect id="SVGID_1_" x="5101.3" y="2463" width="199.5" height="128.8"/>
			</defs>
			<clipPath id="SVGID_2_">
				<use xlink:href="#SVGID_1_"  style="overflow:visible;"/>
			</clipPath>
			<g class="st0">
				<g class="st1">
					<defs>
						<rect id="SVGID_3_" x="5101.3" y="2463" width="99.7" height="64.4"/>
					</defs>
					<clipPath id="SVGID_4_">
						<use xlink:href="#SVGID_3_"  style="overflow:visible;"/>
					</clipPath>
					<g class="st2">
						<g>
							<defs>
								<rect id="SVGID_5_" x="5101.3" y="2463" width="99.7" height="64.4"/>
							</defs>
							<clipPath id="SVGID_6_">
								<use xlink:href="#SVGID_5_"  style="overflow:visible;"/>
							</clipPath>
							<g class="st3">
								
									<image style="overflow:visible;enable-background:new    ;" width="5130" height="5197" xlink:href="7B2965367A826EF.png"  transform="matrix(-2.305401e-18 1.255002e-02 -1.920622e-02 -3.528125e-18 5200.9985 2462.9524)">
								</image>
							</g>
						</g>
					</g>
				</g>
			</g>
		</g>
		<g>
			<defs>
				<rect id="SVGID_7_" x="5101.3" y="2463" width="199.5" height="128.8"/>
			</defs>
			<clipPath id="SVGID_8_">
				<use xlink:href="#SVGID_7_"  style="overflow:visible;"/>
			</clipPath>
			<g class="st4">
				<path class="st5" d="M5150,2541.1c0-0.1,0-0.1,0-0.1c0.1,0,0.2,0,0.3,0c0.1,0,0.2-0.1,0.2-0.1c0-0.1,0.1-0.3,0.1-0.7v-3.1
					c0-0.3,0-0.5-0.1-0.7c0,0-0.1-0.1-0.1-0.1c-0.1,0-0.1,0-0.2,0s-0.1,0-0.2,0c0,0,0-0.1,0-0.1c0-0.1,0-0.1,0-0.1c0.4,0,0.8,0,1,0
					c0.1,0,0.3,0,0.5,0c0.3,0,0.5,0,0.6,0c0.1,0,0.3,0,0.4,0c0.1,0,0.3,0.1,0.4,0.1c0.1,0.1,0.3,0.1,0.4,0.2
					c0.1,0.1,0.2,0.2,0.2,0.3c0.1,0.1,0.1,0.3,0.1,0.5c0,0.1,0,0.2-0.1,0.3c0,0.1-0.1,0.2-0.1,0.3c-0.1,0.1-0.1,0.1-0.2,0.2
					c-0.1,0.1-0.1,0.1-0.2,0.2s-0.1,0.1-0.2,0.1c0,0,0,0,0,0s0,0,0,0s0,0,0,0c0.1,0,0.2,0,0.3,0.1c0.1,0,0.2,0.1,0.3,0.2
					s0.2,0.2,0.3,0.3c0.1,0.1,0.2,0.2,0.2,0.4c0.1,0.1,0.1,0.3,0.1,0.4c0,0.2-0.1,0.5-0.2,0.7c-0.1,0.2-0.3,0.4-0.5,0.5
					c-0.1,0.1-0.3,0.2-0.5,0.2s-0.4,0.1-0.5,0.1s-0.4,0-0.6,0h-1.8C5150,2541.2,5150,2541.2,5150,2541.1z M5151.5,2538.3h0.6
					c0.2,0,0.4-0.1,0.6-0.3c0.1-0.2,0.2-0.4,0.2-0.7c0-0.4-0.1-0.6-0.2-0.8c-0.2-0.2-0.4-0.3-0.7-0.3c-0.2,0-0.4,0-0.4,0.1
					c0,0,0,0,0,0c0,0,0,0,0,0.1c0,0,0,0,0,0.1c0,0,0,0,0,0.1s0,0.1,0,0.1c0,0,0,0.1,0,0.1s0,0.1,0,0.1V2538.3L5151.5,2538.3z
					 M5151.5,2540.3c0,0.3,0,0.4,0.1,0.5c0,0,0.1,0.1,0.2,0.1s0.2,0,0.4,0c0.1,0,0.2,0,0.3,0s0.2-0.1,0.3-0.1c0.1,0,0.2-0.1,0.2-0.2
					c0.1-0.1,0.1-0.2,0.2-0.3c0-0.1,0.1-0.3,0.1-0.4c0-0.1,0-0.2,0-0.4c0-0.1-0.1-0.2-0.1-0.3c-0.1-0.1-0.1-0.2-0.2-0.3
					s-0.2-0.1-0.4-0.2c-0.1,0-0.3-0.1-0.5-0.1h-0.4L5151.5,2540.3L5151.5,2540.3z"/>
				<path class="st5" d="M5154.7,2539.7c0-0.2,0-0.5,0.1-0.7c0.1-0.2,0.2-0.4,0.4-0.6c0.2-0.2,0.3-0.3,0.5-0.4
					c0.2-0.1,0.4-0.2,0.6-0.2c0.2,0,0.3,0,0.4,0.1c0.1,0,0.2,0.1,0.3,0.1c0.1,0.1,0.2,0.1,0.2,0.2c0.1,0.1,0.1,0.2,0.2,0.2
					c0,0.1,0.1,0.2,0.1,0.2c0,0.1,0,0.1,0,0.2c0,0.1,0,0.2-0.1,0.3s-0.1,0.1-0.1,0.1c-0.3,0-0.9,0-1.9,0.1c0,0,0,0,0,0
					c0,0.2,0,0.3,0,0.4c0,0.1,0.1,0.3,0.1,0.4c0.1,0.1,0.1,0.2,0.2,0.3c0.1,0.1,0.2,0.1,0.3,0.2s0.2,0.1,0.3,0.1c0.1,0,0.2,0,0.3,0
					c0.1,0,0.2,0,0.3,0c0.1,0,0.2-0.1,0.3-0.1s0.1-0.1,0.2-0.1c0,0,0.1-0.1,0.1-0.1c0,0,0,0,0.1,0c0,0,0,0.1,0,0.1c0,0,0,0.1,0,0.1
					c0,0.1-0.1,0.1-0.2,0.2s-0.2,0.1-0.3,0.2c-0.1,0.1-0.2,0.1-0.4,0.2c-0.1,0.1-0.3,0.1-0.5,0.1c-0.3,0-0.6-0.1-0.8-0.2
					c-0.2-0.1-0.4-0.3-0.6-0.6C5154.8,2540.3,5154.7,2540,5154.7,2539.7z M5155.6,2539c0.1,0,0.3,0,0.6,0c0.3,0,0.5,0,0.6,0
					c0,0,0.1,0,0.1,0c0,0,0-0.1,0-0.1c0-0.1,0-0.2,0-0.2s0-0.2-0.1-0.2c0-0.1-0.1-0.1-0.2-0.2c-0.1-0.1-0.2-0.1-0.3-0.1
					c-0.1,0-0.2,0-0.3,0.1c-0.1,0.1-0.2,0.1-0.2,0.2c-0.1,0.1-0.1,0.2-0.1,0.3s-0.1,0.2-0.1,0.2S5155.6,2539,5155.6,2539z"/>
				<path class="st5" d="M5158.2,2540.4c0-0.1,0-0.3,0.1-0.4s0.2-0.2,0.3-0.2c0.5-0.1,0.9-0.3,1.4-0.5c0,0,0-0.1,0-0.2v-0.2
					c0-0.2-0.1-0.4-0.2-0.5c-0.1-0.2-0.2-0.2-0.4-0.2c-0.1,0-0.2,0-0.3,0.1c-0.1,0.1-0.1,0.2-0.2,0.4c-0.1,0.2-0.2,0.4-0.4,0.4
					c-0.1,0-0.2,0-0.3-0.1s-0.1-0.1-0.1-0.2c0,0,0-0.1,0-0.1c0,0,0-0.1,0.1-0.1c0.1,0,0.1-0.1,0.2-0.2c0.1-0.1,0.2-0.1,0.4-0.2
					c0.1-0.1,0.3-0.1,0.5-0.2c0.2,0,0.3-0.1,0.5-0.1c0.2,0,0.4,0,0.5,0.1c0.2,0.1,0.3,0.2,0.4,0.4s0.1,0.4,0.1,0.6v1.5
					c0,0.1,0,0.2,0.1,0.3c0,0.1,0.1,0.1,0.2,0.1c0,0,0.1,0,0.1,0s0.1,0,0.1,0s0,0,0.1,0s0,0,0,0c0,0,0,0,0,0.1s0,0.1,0,0.1
					c-0.1,0.1-0.2,0.1-0.3,0.2c-0.1,0.1-0.3,0.1-0.4,0.1c-0.1,0-0.2,0-0.3-0.1c-0.1-0.1-0.2-0.2-0.2-0.3c-0.1,0.1-0.2,0.2-0.4,0.3
					c-0.2,0.1-0.4,0.2-0.5,0.2c-0.3,0-0.5-0.1-0.7-0.3C5158.3,2540.8,5158.2,2540.6,5158.2,2540.4z M5159.1,2540.3
					c0,0.2,0,0.3,0.2,0.4c0.1,0.1,0.2,0.1,0.4,0.1c0.1,0,0.1,0,0.2,0c0.1,0,0.1-0.1,0.2-0.1c0,0,0.1-0.1,0.1-0.1v-1.1
					c0,0-0.1,0-0.2,0.1c-0.1,0-0.2,0.1-0.3,0.1c-0.1,0-0.1,0.1-0.2,0.1c-0.1,0.1-0.2,0.1-0.3,0.2S5159.1,2540.2,5159.1,2540.3z"/>
				<path class="st5" d="M5161.6,2538.1C5161.6,2538.1,5161.6,2538,5161.6,2538.1c0.3-0.1,0.5-0.1,0.7-0.2c0.2-0.1,0.4-0.1,0.6-0.2
					c0,0,0,0,0.1,0.1s0,0.1,0,0.1c0,0,0,0.1,0,0.1s0,0.1,0,0.2c0,0.1,0,0.1,0,0.2v0.4v0.8c0,0.4,0.1,0.7,0.2,0.9s0.3,0.3,0.5,0.3
					c0.1,0,0.3,0,0.4-0.1c0.1-0.1,0.2-0.2,0.2-0.2v-1.5c0-0.3,0-0.5-0.1-0.5c0,0-0.1-0.1-0.1-0.1s-0.1,0-0.2,0c-0.1,0-0.1,0-0.1,0
					c0,0,0,0,0-0.1c0-0.1,0-0.1,0-0.1c0.2,0,0.5,0,0.7-0.1c0.2-0.1,0.4-0.1,0.6-0.2c0,0,0,0,0.1,0.1s0,0.1,0,0.1c0,0,0,0.1,0,0.1
					s0,0.1,0,0.2c0,0.1,0,0.1,0,0.2v0.4v1.4c0,0.2,0,0.3,0.1,0.4c0,0.1,0.2,0.1,0.4,0.1c0,0,0,0.1,0,0.1c0,0,0,0.1,0,0.1
					s0,0.1,0,0.1c-0.1,0-0.3,0-0.5,0.1c-0.2,0-0.3,0.1-0.5,0.1c-0.1,0-0.2,0-0.2,0c0,0,0,0,0,0s0-0.1,0-0.1v-0.3c0,0,0,0,0,0
					s0,0,0,0c-0.1,0.1-0.3,0.2-0.5,0.3c-0.2,0.1-0.4,0.1-0.6,0.1c-0.2,0-0.3,0-0.4-0.1c-0.1-0.1-0.2-0.1-0.3-0.2
					c-0.1-0.1-0.1-0.2-0.2-0.3c0-0.1-0.1-0.3-0.1-0.4c0-0.1,0-0.3,0-0.4v-0.8c0-0.3,0-0.4-0.1-0.5c0-0.1-0.1-0.1-0.2-0.1
					s-0.2,0-0.3,0C5161.6,2538.2,5161.6,2538.2,5161.6,2538.1z"/>
				<path class="st5" d="M5165.8,2538.1c0,0,0.1-0.1,0.2-0.2h0.3v-0.5c0,0,0.1-0.1,0.2-0.2c0.1-0.1,0.1-0.1,0.2-0.2
					c0-0.1,0.1-0.1,0.2-0.2s0.1-0.1,0.1-0.1c0,0,0,0,0.1,0c0,0,0,0,0,0c0,0,0,0,0,0c0,0,0,0,0,0v1.2h0.9c0,0,0,0,0,0.1
					c0,0,0,0,0,0.1s0,0.1-0.1,0.1c0,0,0,0.1-0.1,0.1h-0.8v2c0,0.4,0.2,0.6,0.5,0.6c0,0,0.1,0,0.2,0c0.1,0,0.1,0,0.1-0.1
					s0.1,0,0.1-0.1s0,0,0.1,0c0,0,0,0.1,0,0.1c0,0,0,0,0,0.1s0,0,0,0.1c0,0-0.1,0.1-0.1,0.1s-0.1,0.1-0.2,0.1
					c-0.1,0.1-0.2,0.1-0.3,0.1c-0.1,0-0.2,0-0.3,0c-0.1,0-0.2,0-0.3,0s-0.2-0.1-0.2-0.1c-0.1,0-0.1-0.1-0.2-0.2
					c-0.1-0.1-0.1-0.2-0.1-0.3c0-0.1-0.1-0.3-0.1-0.4v-2.1L5165.8,2538.1C5165.8,2538.2,5165.8,2538.2,5165.8,2538.1z"/>
				<path class="st5" d="M5168.3,2537.8c0.4,0,0.7,0.1,0.9,0.1c0.2,0,0.5,0,0.9-0.1c0,0,0,0.1,0,0.1s0,0.1,0,0.1c-0.1,0-0.2,0-0.3,0
					s-0.2,0.1-0.2,0.1c0,0,0,0.1,0,0.1c0,0.1,0.1,0.3,0.3,0.6c0.1,0.3,0.3,0.6,0.4,0.9l0.2,0.4c0.3-0.6,0.5-1.1,0.7-1.6
					c0-0.1,0.1-0.2,0.1-0.3c0,0,0-0.1-0.1-0.1s-0.1-0.1-0.1-0.1s-0.1,0-0.2,0s-0.1,0-0.1,0c0,0,0,0,0-0.1s0-0.1,0-0.1
					c0.3,0,0.5,0.1,0.8,0.1c0.2,0,0.4,0,0.7-0.1c0,0,0,0.1,0,0.1c0,0,0,0,0,0c0,0.1,0,0.1,0,0.1c0,0-0.1,0-0.2,0s-0.1,0-0.2,0.1
					c-0.1,0-0.1,0.1-0.2,0.2c-0.1,0.2-0.2,0.4-0.3,0.7s-0.3,0.7-0.5,1c-0.2,0.4-0.3,0.7-0.5,1c0,0,0,0.1-0.1,0.2
					c0,0.1-0.1,0.2-0.1,0.2c0,0,0,0.1-0.1,0.2s-0.1,0.1-0.1,0.2s-0.1,0.1-0.1,0.2c0,0.1-0.1,0.1-0.1,0.2s-0.1,0.1-0.1,0.2
					c-0.1,0.1-0.2,0.2-0.3,0.3c-0.1,0.1-0.2,0.1-0.3,0.2c-0.1,0-0.2,0.1-0.3,0.1c-0.1,0-0.2,0-0.2,0c-0.1,0-0.1-0.1-0.2-0.1
					s-0.1-0.1-0.1-0.2c0-0.1,0-0.2,0.1-0.3c0.3,0,0.5,0,0.6-0.1s0.3-0.2,0.5-0.4c0,0,0-0.1,0.1-0.1s0-0.1,0.1-0.1c0,0,0-0.1,0.1-0.1
					s0-0.1,0-0.1s0-0.1,0-0.1c0-0.1,0-0.1,0-0.1c-0.3-0.8-0.8-1.7-1.3-2.8c0,0-0.1-0.1-0.1-0.1c0,0-0.1-0.1-0.1-0.1s-0.1,0-0.1,0
					s-0.1,0-0.1,0c0,0,0-0.1,0-0.1C5168.2,2537.9,5168.3,2537.8,5168.3,2537.8z"/>
				<path class="st5" d="M5173.9,2537.3c0-0.2,0.1-0.6,0.2-1.4c0,0,0,0,0.1,0s0,0,0.1,0c0,0,0.1,0,0.1,0c0.1,0,0.1,0,0.2,0.1
					s0.2,0,0.3,0h2.8c0.1,0,0.2,0,0.3,0s0.2,0,0.2-0.1c0.1,0,0.1,0,0.1,0c0,0,0.1,0,0.1,0s0,0,0.1,0c0.1,0.8,0.2,1.3,0.2,1.4
					c0,0,0,0-0.1,0s-0.1,0-0.1,0c0,0-0.1,0-0.1,0c0-0.1-0.1-0.3-0.1-0.4c0-0.1-0.1-0.2-0.2-0.3s-0.1-0.2-0.2-0.2
					c-0.1,0-0.2-0.1-0.3-0.1h-0.9v3.8c0,0.3,0,0.6,0,0.7c0,0,0.1,0.1,0.2,0.1c0.1,0,0.2,0,0.3,0c0,0,0,0.1,0,0.1s0,0.1,0,0.1
					c-0.4,0-0.8,0-1,0c-0.3,0-0.6,0-1,0c0,0,0-0.1,0-0.1s0-0.1,0-0.1c0.1,0,0.2,0,0.3,0c0.1,0,0.2-0.1,0.2-0.1
					c0-0.1,0.1-0.3,0.1-0.7v-3.8h-0.9c-0.2,0-0.4,0.1-0.5,0.3c-0.1,0.2-0.2,0.4-0.3,0.7c0,0,0,0-0.1,0
					C5174.1,2537.4,5174.1,2537.4,5173.9,2537.3C5174,2537.3,5174,2537.3,5173.9,2537.3z"/>
				<path class="st5" d="M5178.9,2541.1c0-0.1,0-0.1,0-0.1c0.1,0,0.2,0,0.3,0c0.1,0,0.2-0.1,0.2-0.1c0-0.1,0.1-0.3,0.1-0.7v-3.4
					c0-0.2,0-0.3,0-0.4c0,0-0.1-0.1-0.2-0.1s-0.2,0-0.3,0c0,0,0,0,0-0.1s0-0.1,0-0.1c0,0,0-0.1,0-0.1c0.2,0,0.4,0,0.6-0.1
					c0.2,0,0.3-0.1,0.5-0.1c0.1,0,0.2-0.1,0.3-0.1c0,0,0,0,0.1,0s0,0.1,0,0.1c-0.1,0.2-0.1,0.5-0.1,0.7v1.7c0,0,0,0,0,0s0,0,0,0
					s0,0,0,0s0,0,0,0c0.1-0.1,0.3-0.3,0.5-0.4c0.2-0.1,0.4-0.2,0.6-0.2c0.2,0,0.3,0,0.4,0.1c0.1,0.1,0.2,0.1,0.3,0.2
					s0.1,0.2,0.2,0.4c0,0.1,0.1,0.3,0.1,0.5c0,0.2,0,0.4,0,0.6v0.7c0,0.3,0,0.6,0,0.7c0,0,0.1,0.1,0.2,0.1c0.1,0,0.2,0,0.3,0
					c0,0,0,0.1,0,0.1s0,0.1,0,0.1c-0.4,0-0.7,0-1,0c-0.2,0-0.5,0-0.9,0c0,0,0-0.1,0-0.1s0-0.1,0-0.1c0.1,0,0.2,0,0.3,0
					s0.2-0.1,0.2-0.1c0-0.1,0-0.3,0-0.7v-0.7c0-0.2,0-0.3,0-0.4c0-0.1,0-0.2-0.1-0.3c0-0.1-0.1-0.2-0.1-0.2s-0.1-0.1-0.2-0.1
					s-0.2-0.1-0.3-0.1c-0.1,0-0.2,0-0.3,0.1c-0.1,0.1-0.2,0.1-0.3,0.2s-0.1,0.1-0.1,0.2v1.5c0,0.3,0,0.6,0,0.7c0,0,0.1,0.1,0.2,0.1
					c0.1,0,0.2,0,0.3,0c0,0,0,0.1,0,0.1s0,0.1,0,0.1c-0.4,0-0.7,0-0.9,0c-0.2,0-0.5,0-0.9,0
					C5178.9,2541.2,5178.9,2541.2,5178.9,2541.1z"/>
				<path class="st5" d="M5183.4,2538.2C5183.4,2538.2,5183.4,2538.2,5183.4,2538.2c0-0.1,0-0.1,0-0.1c0.2,0,0.5-0.1,0.7-0.1
					c0.2-0.1,0.4-0.1,0.6-0.2c0,0,0,0,0.1,0.1s0,0.1,0,0.1c0,0,0,0.1,0,0.2c0,0.1,0,0.2,0,0.3c0,0.1,0,0.2,0,0.2c0,0,0,0,0,0
					c0,0,0,0,0,0c0-0.1,0.1-0.2,0.2-0.3s0.1-0.2,0.2-0.3s0.2-0.2,0.3-0.2c0.1,0,0.2-0.1,0.3-0.1c0.1,0,0.2,0,0.3,0s0.2,0.1,0.2,0.1
					c0,0.1,0.1,0.2,0.1,0.3c0,0.1,0,0.3-0.1,0.4c-0.1,0.1-0.2,0.2-0.3,0.2c0,0-0.1,0-0.1,0c0,0-0.1,0-0.1-0.1c0,0-0.1-0.1-0.1-0.1
					c0,0,0,0,0,0s0,0,0,0s0,0,0,0s0,0,0,0s0,0,0,0s0,0,0,0s0,0,0,0s0,0-0.1,0c-0.1,0-0.1,0-0.2,0c-0.1,0-0.1,0.1-0.1,0.1
					s-0.1,0.1-0.1,0.1c0,0.1-0.1,0.1-0.1,0.2s0,0.1-0.1,0.1c0,0,0,0.1,0,0.1v1.1c0,0.3,0,0.6,0,0.7c0,0,0.1,0.1,0.3,0.1
					c0.2,0,0.3,0,0.4,0c0,0,0,0.1,0,0.1s0,0.1,0,0.1c-0.4,0-0.8,0-1.1,0c-0.2,0-0.6,0-1,0c0,0,0-0.1,0-0.1s0-0.1,0-0.1
					c0,0,0.1,0,0.2,0s0.1,0,0.2,0s0.1,0,0.1-0.1c0,0,0-0.1,0-0.1s0-0.1,0-0.2s0-0.1,0-0.2c0,0,0-0.1,0-0.2v-1.2c0-0.3,0-0.5-0.1-0.5
					c0-0.1-0.1-0.1-0.2-0.1s-0.2,0-0.3,0C5183.4,2538.3,5183.4,2538.3,5183.4,2538.2z"/>
				<path class="st5" d="M5186.7,2539.5c0-0.2,0-0.5,0.1-0.7c0.1-0.2,0.2-0.4,0.4-0.6c0.2-0.2,0.3-0.3,0.6-0.4
					c0.2-0.1,0.4-0.1,0.7-0.1c0.3,0,0.5,0,0.7,0.1c0.2,0.1,0.4,0.2,0.6,0.4c0.2,0.2,0.3,0.3,0.4,0.6c0.1,0.2,0.1,0.4,0.1,0.7
					s0,0.5-0.1,0.7c-0.1,0.2-0.2,0.4-0.4,0.6c-0.2,0.2-0.3,0.3-0.6,0.4c-0.2,0.1-0.4,0.1-0.7,0.1c-0.3,0-0.5,0-0.7-0.1
					c-0.2-0.1-0.4-0.2-0.6-0.4c-0.1-0.2-0.3-0.3-0.4-0.6C5186.7,2540,5186.7,2539.8,5186.7,2539.5z M5187.6,2539.4
					c0,0.1,0,0.3,0,0.4c0,0.1,0.1,0.3,0.1,0.4c0,0.1,0.1,0.3,0.2,0.4c0.1,0.1,0.2,0.2,0.3,0.3c0.1,0.1,0.2,0.1,0.3,0.1
					c0.1,0,0.2,0,0.3-0.1c0.1-0.1,0.2-0.1,0.2-0.2c0.1-0.1,0.1-0.2,0.1-0.3c0-0.1,0.1-0.2,0.1-0.4c0-0.1,0-0.2,0-0.4
					c0-0.1,0-0.3,0-0.4c0-0.1-0.1-0.3-0.1-0.4c-0.1-0.1-0.1-0.3-0.2-0.4c-0.1-0.1-0.2-0.2-0.3-0.3c-0.1-0.1-0.2-0.1-0.3-0.1
					c-0.1,0-0.2,0-0.3,0.1c-0.1,0.1-0.2,0.1-0.2,0.2c-0.1,0.1-0.1,0.2-0.1,0.3c0,0.1-0.1,0.2-0.1,0.4
					C5187.6,2539.1,5187.6,2539.2,5187.6,2539.4z"/>
				<path class="st5" d="M5190.5,2538.1C5190.5,2538.1,5190.5,2538,5190.5,2538.1c0.3-0.1,0.5-0.1,0.7-0.2c0.2-0.1,0.4-0.1,0.6-0.2
					c0,0,0,0,0.1,0.1s0,0.1,0,0.1c0,0,0,0.1,0,0.1s0,0.1,0,0.2c0,0.1,0,0.1,0,0.2v0.4v0.8c0,0.4,0.1,0.7,0.2,0.9s0.3,0.3,0.5,0.3
					c0.1,0,0.3,0,0.4-0.1c0.1-0.1,0.2-0.2,0.2-0.2v-1.5c0-0.3,0-0.5-0.1-0.5c0,0-0.1-0.1-0.1-0.1s-0.1,0-0.2,0c-0.1,0-0.1,0-0.1,0
					c0,0,0,0,0-0.1c0-0.1,0-0.1,0-0.1c0.2,0,0.5,0,0.7-0.1c0.2-0.1,0.4-0.1,0.6-0.2c0,0,0,0,0.1,0.1s0,0.1,0,0.1c0,0,0,0.1,0,0.1
					s0,0.1,0,0.2c0,0.1,0,0.1,0,0.2v0.4v1.4c0,0.2,0,0.3,0.1,0.4c0,0.1,0.2,0.1,0.4,0.1c0,0,0,0.1,0,0.1c0,0,0,0.1,0,0.1
					s0,0.1,0,0.1c-0.1,0-0.3,0-0.5,0.1c-0.2,0-0.3,0.1-0.5,0.1c-0.1,0-0.2,0-0.2,0c0,0,0,0,0,0s0-0.1,0-0.1v-0.3c0,0,0,0,0,0
					s0,0,0,0c-0.1,0.1-0.3,0.2-0.5,0.3c-0.2,0.1-0.4,0.1-0.6,0.1c-0.2,0-0.3,0-0.4-0.1c-0.1-0.1-0.2-0.1-0.3-0.2
					c-0.1-0.1-0.1-0.2-0.2-0.3c0-0.1-0.1-0.3-0.1-0.4c0-0.1,0-0.3,0-0.4v-0.8c0-0.3,0-0.4-0.1-0.5c0-0.1-0.1-0.1-0.2-0.1
					s-0.2,0-0.3,0C5190.5,2538.2,5190.5,2538.2,5190.5,2538.1z"/>
				<path class="st5" d="M5194.8,2542c0-0.1,0-0.2,0.1-0.2c0.1-0.1,0.1-0.2,0.2-0.2c0.1-0.1,0.2-0.1,0.2-0.2s0.2-0.1,0.2-0.1
					c-0.1,0-0.3-0.1-0.4-0.3c-0.1-0.1-0.2-0.3-0.2-0.5c0,0,0.1-0.1,0.2-0.2c0.1-0.1,0.2-0.1,0.3-0.2c0.1-0.1,0.2-0.1,0.3-0.2
					c-0.2-0.1-0.4-0.2-0.5-0.4c-0.1-0.2-0.2-0.4-0.2-0.6c0-0.2,0-0.3,0.1-0.5c0.1-0.1,0.2-0.3,0.3-0.4c0.1-0.1,0.3-0.2,0.4-0.3
					c0.2-0.1,0.4-0.1,0.6-0.1c0.3,0,0.6,0.1,0.8,0.2c0,0,0,0,0,0s0,0,0,0c0,0,0,0,0,0s0,0,0,0l0.9-0.1c0.1,0,0.1,0,0.1,0.1
					c0,0,0,0.1,0,0.1s0,0.1-0.1,0.2c0,0-0.1,0.1-0.1,0.1c0,0-0.1,0-0.2,0c-0.1,0-0.1,0-0.2,0s-0.1,0-0.1,0c0,0,0,0,0,0
					c0.1,0.2,0.2,0.4,0.2,0.6c0,0.1,0,0.3-0.1,0.4c-0.1,0.1-0.2,0.3-0.3,0.4c-0.1,0.1-0.3,0.2-0.5,0.3c-0.2,0.1-0.4,0.1-0.6,0.1
					c-0.1,0-0.3,0-0.4-0.1c-0.2,0.1-0.2,0.2-0.2,0.3c0,0.1,0,0.1,0.1,0.2s0.2,0.1,0.3,0.1c0.4,0,0.8,0,1,0c0.2,0,0.3,0,0.5,0.1
					c0.1,0.1,0.3,0.1,0.4,0.2c0.1,0.1,0.2,0.2,0.2,0.3c0.1,0.1,0.1,0.2,0.1,0.3c0,0.2,0,0.3-0.1,0.5c-0.1,0.2-0.2,0.3-0.3,0.4
					c-0.1,0.1-0.3,0.2-0.5,0.3c-0.2,0.1-0.4,0.2-0.6,0.2c-0.2,0.1-0.4,0.1-0.6,0.1c-0.2,0-0.5,0-0.7-0.1c-0.2-0.1-0.4-0.2-0.5-0.3
					C5194.9,2542.4,5194.8,2542.2,5194.8,2542z M5195.7,2541.7c0,0.3,0.1,0.5,0.3,0.6c0.2,0.2,0.4,0.2,0.7,0.2c0.2,0,0.3,0,0.4-0.1
					s0.3-0.1,0.3-0.2c0.1-0.1,0.2-0.1,0.2-0.2c0.1-0.1,0.1-0.2,0.1-0.3c0-0.2-0.1-0.3-0.3-0.4c-0.2-0.1-0.4-0.2-0.7-0.2
					c-0.4,0-0.7,0-0.8,0c-0.1,0.1-0.1,0.1-0.2,0.2C5195.7,2541.6,5195.7,2541.7,5195.7,2541.7z M5195.8,2538.9c0,0.2,0,0.3,0.1,0.5
					c0,0.1,0.1,0.3,0.2,0.4s0.2,0.2,0.4,0.2c0.1,0,0.2,0,0.3-0.1c0.1,0,0.1-0.1,0.2-0.2c0-0.1,0.1-0.2,0.1-0.3c0-0.1,0-0.2,0-0.3
					c0-0.1,0-0.2,0-0.4c0-0.1-0.1-0.2-0.1-0.3s-0.1-0.2-0.2-0.2c-0.1-0.1-0.2-0.1-0.3-0.1c-0.1,0-0.2,0-0.3,0.1s-0.1,0.1-0.2,0.2
					s-0.1,0.2-0.1,0.3C5195.8,2538.7,5195.8,2538.8,5195.8,2538.9z"/>
				<path class="st5" d="M5198.5,2541.1c0-0.1,0-0.1,0-0.1c0.1,0,0.2,0,0.3,0c0.1,0,0.2-0.1,0.2-0.1c0-0.1,0.1-0.3,0.1-0.7v-3.4
					c0-0.2,0-0.3,0-0.4c0,0-0.1-0.1-0.2-0.1s-0.2,0-0.3,0c0,0,0,0,0-0.1s0-0.1,0-0.1c0,0,0-0.1,0-0.1c0.2,0,0.4,0,0.6-0.1
					c0.2,0,0.3-0.1,0.5-0.1c0.1,0,0.2-0.1,0.3-0.1c0,0,0,0,0.1,0s0,0.1,0,0.1c-0.1,0.2-0.1,0.5-0.1,0.7v1.7c0,0,0,0,0,0s0,0,0,0
					s0,0,0,0s0,0,0,0c0.1-0.1,0.3-0.3,0.5-0.4c0.2-0.1,0.4-0.2,0.6-0.2c0.2,0,0.3,0,0.4,0.1c0.1,0.1,0.2,0.1,0.3,0.2
					s0.1,0.2,0.2,0.4c0,0.1,0.1,0.3,0.1,0.5c0,0.2,0,0.4,0,0.6v0.7c0,0.3,0,0.6,0,0.7c0,0,0.1,0.1,0.2,0.1s0.2,0,0.3,0
					c0,0,0,0.1,0,0.1s0,0.1,0,0.1c-0.4,0-0.7,0-1,0c-0.2,0-0.5,0-0.9,0c0,0,0-0.1,0-0.1s0-0.1,0-0.1c0.1,0,0.2,0,0.3,0
					s0.2-0.1,0.2-0.1c0-0.1,0-0.3,0-0.7v-0.7c0-0.2,0-0.3,0-0.4c0-0.1,0-0.2-0.1-0.3c0-0.1-0.1-0.2-0.1-0.2s-0.1-0.1-0.2-0.1
					c-0.1,0-0.2-0.1-0.3-0.1c-0.1,0-0.2,0-0.3,0.1c-0.1,0.1-0.2,0.1-0.3,0.2s-0.1,0.1-0.1,0.2v1.5c0,0.3,0,0.6,0,0.7
					c0,0,0.1,0.1,0.2,0.1s0.2,0,0.3,0c0,0,0,0.1,0,0.1s0,0.1,0,0.1c-0.4,0-0.7,0-0.9,0c-0.2,0-0.5,0-0.9,0
					C5198.5,2541.2,5198.5,2541.2,5198.5,2541.1z"/>
				<path class="st5" d="M5204.8,2539.8C5204.8,2539.8,5204.8,2539.8,5204.8,2539.8c0.2-0.1,0.2-0.1,0.2-0.1c0.1,0,0.1,0,0.1,0.1
					c0,0.1,0,0.2,0.1,0.3c0,0.1,0.1,0.2,0.2,0.3c0.1,0.1,0.1,0.2,0.2,0.3c0.1,0.1,0.2,0.2,0.3,0.2c0.1,0.1,0.3,0.1,0.5,0.1
					c0.1,0,0.1,0,0.2,0c0.1,0,0.1,0,0.2-0.1s0.1-0.1,0.2-0.1c0.1,0,0.1-0.1,0.1-0.2c0-0.1,0.1-0.1,0.1-0.2c0-0.1,0-0.2,0-0.3
					c0-0.1,0-0.1,0-0.2s0-0.1-0.1-0.2c0-0.1-0.1-0.1-0.1-0.2s-0.1-0.1-0.1-0.1c-0.1,0-0.1-0.1-0.1-0.1s-0.1-0.1-0.2-0.1
					c-0.1,0-0.1-0.1-0.2-0.1c0,0-0.1-0.1-0.2-0.1c-0.1,0-0.1-0.1-0.2-0.1c0,0,0,0-0.1,0c-0.1-0.1-0.1-0.1-0.2-0.1s-0.1-0.1-0.2-0.1
					c-0.1-0.1-0.1-0.1-0.2-0.1c0,0-0.1-0.1-0.2-0.1c-0.1-0.1-0.1-0.1-0.2-0.2c0,0-0.1-0.1-0.1-0.2s-0.1-0.1-0.1-0.2
					c0-0.1,0-0.1-0.1-0.2c0-0.1,0-0.2,0-0.2c0-0.2,0-0.4,0.1-0.6c0.1-0.2,0.2-0.3,0.4-0.4c0.1-0.1,0.3-0.2,0.5-0.3
					c0.2-0.1,0.4-0.1,0.6-0.1c0.1,0,0.2,0,0.3,0s0.2,0,0.3,0s0.2,0,0.3,0.1c0.1,0,0.2,0.1,0.3,0.1c0,0.3,0.1,0.7,0.1,1.2
					c0,0,0,0.1-0.1,0.1c-0.1,0-0.2,0-0.2-0.1c0-0.1,0-0.2-0.1-0.3s-0.1-0.2-0.1-0.3c-0.1-0.1-0.1-0.2-0.2-0.3s-0.2-0.1-0.3-0.2
					s-0.2-0.1-0.3-0.1c-0.2,0-0.4,0.1-0.6,0.2c-0.1,0.1-0.2,0.3-0.2,0.6c0,0.1,0,0.1,0,0.2s0,0.1,0,0.1s0,0.1,0.1,0.1
					s0.1,0.1,0.1,0.1c0,0,0.1,0.1,0.1,0.1s0.1,0.1,0.1,0.1c0,0,0.1,0.1,0.1,0.1c0.1,0,0.1,0.1,0.1,0.1s0.1,0.1,0.2,0.1
					s0.1,0.1,0.2,0.1c0,0,0.1,0.1,0.2,0.1c0.1,0,0.1,0.1,0.2,0.1s0.1,0.1,0.1,0.1c0.1,0,0.1,0.1,0.1,0.1c0,0,0.1,0.1,0.1,0.1
					s0.1,0.1,0.1,0.1c0,0,0.1,0.1,0.1,0.1c0,0.1,0.1,0.1,0.1,0.2c0,0.1,0,0.1,0.1,0.2c0,0.1,0,0.1,0.1,0.2c0,0.1,0,0.1,0,0.2
					c0,0.2,0,0.4-0.1,0.6c-0.1,0.2-0.2,0.3-0.4,0.5c-0.2,0.1-0.3,0.2-0.5,0.3c-0.2,0.1-0.4,0.1-0.6,0.1c-0.2,0-0.3,0-0.5,0
					c-0.2,0-0.3-0.1-0.4-0.1s-0.3-0.1-0.5-0.1c0-0.2-0.1-0.4-0.1-0.7S5204.8,2539.9,5204.8,2539.8z"/>
				<path class="st5" d="M5208.7,2539.7c0-0.2,0-0.5,0.1-0.7s0.2-0.4,0.4-0.6c0.2-0.2,0.3-0.3,0.5-0.4c0.2-0.1,0.4-0.2,0.6-0.2
					c0.2,0,0.3,0,0.4,0.1c0.1,0,0.2,0.1,0.3,0.1c0.1,0.1,0.2,0.1,0.2,0.2c0.1,0.1,0.1,0.2,0.2,0.2c0,0.1,0.1,0.2,0.1,0.2
					c0,0.1,0,0.1,0,0.2c0,0.1,0,0.2,0,0.3s-0.1,0.1-0.1,0.1c-0.3,0-0.9,0-1.9,0.1c0,0,0,0,0,0c0,0.2,0,0.3,0,0.4
					c0,0.1,0.1,0.3,0.1,0.4c0.1,0.1,0.1,0.2,0.2,0.3c0.1,0.1,0.2,0.1,0.3,0.2c0.1,0,0.2,0.1,0.3,0.1s0.2,0,0.3,0c0.1,0,0.2,0,0.3,0
					s0.2-0.1,0.3-0.1s0.1-0.1,0.2-0.1c0,0,0.1-0.1,0.1-0.1c0,0,0,0,0.1,0s0,0.1,0,0.1c0,0,0,0.1,0,0.1c0,0.1-0.1,0.1-0.2,0.2
					s-0.2,0.1-0.3,0.2c-0.1,0.1-0.2,0.1-0.4,0.2c-0.1,0.1-0.3,0.1-0.5,0.1c-0.3,0-0.6-0.1-0.8-0.2c-0.2-0.1-0.4-0.3-0.6-0.6
					C5208.7,2540.3,5208.7,2540,5208.7,2539.7z M5209.5,2539c0.1,0,0.3,0,0.6,0c0.3,0,0.5,0,0.6,0c0,0,0.1,0,0.1,0s0-0.1,0-0.1
					c0-0.1,0-0.2,0-0.2c0-0.1,0-0.2-0.1-0.2s-0.1-0.1-0.2-0.2c-0.1-0.1-0.2-0.1-0.3-0.1c-0.1,0-0.2,0-0.3,0.1
					c-0.1,0.1-0.2,0.1-0.2,0.2c-0.1,0.1-0.1,0.2-0.1,0.3s-0.1,0.2-0.1,0.2S5209.5,2539,5209.5,2539z"/>
				<path class="st5" d="M5212,2541.1c0-0.1,0-0.1,0-0.1c0.1,0,0.2,0,0.3,0c0.1,0,0.2-0.1,0.2-0.1c0-0.1,0.1-0.3,0.1-0.7v-3.4
					c0-0.2,0-0.3,0-0.4c0,0-0.1-0.1-0.2-0.1s-0.2,0-0.3,0c0,0,0,0,0-0.1s0-0.1,0-0.1c0,0,0-0.1,0-0.1c0.2,0,0.4,0,0.6-0.1
					c0.2,0,0.3-0.1,0.5-0.1c0.1,0,0.2-0.1,0.3-0.1c0,0,0,0,0.1,0s0,0.1,0,0.1c-0.1,0.2-0.1,0.5-0.1,0.7v3.6c0,0.3,0,0.6,0,0.7
					c0,0,0.1,0.1,0.2,0.1c0.1,0,0.2,0,0.3,0c0,0,0,0.1,0,0.1s0,0.1,0,0.1c-0.4,0-0.7,0-1,0c-0.2,0-0.5,0-0.9,0
					C5212,2541.2,5212,2541.2,5212,2541.1z"/>
				<path class="st5" d="M5214.3,2541.1c0-0.1,0-0.1,0-0.1c0,0,0.1,0,0.2,0s0.1,0,0.2,0c0.1,0,0.1,0,0.1-0.1c0-0.1,0-0.3,0-0.7v-2
					h-0.5c0,0,0,0,0-0.1c0,0,0.1-0.1,0.2-0.2h0.3v-0.1c0-0.2,0-0.3,0.1-0.5c0-0.2,0.1-0.3,0.1-0.4c0.1-0.1,0.1-0.3,0.2-0.4
					c0.1-0.1,0.2-0.2,0.3-0.3c0.1-0.1,0.2-0.2,0.3-0.2c0.1-0.1,0.2-0.1,0.3-0.2s0.2-0.1,0.3-0.1c0.1,0,0.2,0,0.3,0s0.1,0,0.2,0.1
					c0,0,0.1,0.1,0.1,0.1c0,0,0.1,0.1,0.1,0.2c0,0.1,0,0.2-0.1,0.2c0,0.1-0.1,0.1-0.1,0.2s-0.1,0-0.2,0c0,0-0.1,0-0.1,0
					s-0.1,0-0.1,0s-0.1,0-0.1-0.1c0,0-0.1,0-0.1-0.1c-0.1-0.1-0.2-0.1-0.3-0.1c-0.1,0-0.2,0.1-0.2,0.2c-0.1,0.1-0.1,0.3-0.1,0.5
					c0,0.4,0,0.8,0,0.9h0.9c0,0,0,0,0,0.1c0,0,0,0.1,0,0.1s-0.1,0.1-0.1,0.1h-0.8v2c0,0.3,0,0.6,0,0.7c0,0,0.1,0.1,0.2,0.1
					c0.1,0,0.2,0,0.3,0c0,0,0,0.1,0,0.1s0,0.1,0,0.1c-0.4,0-0.7,0-1,0c-0.2,0-0.5,0-1,0C5214.3,2541.2,5214.3,2541.2,5214.3,2541.1z
					"/>
				<path class="st5" d="M5217.1,2539.6c0-0.1,0-0.3,0.1-0.4c1.1-0.1,1.7-0.1,1.9-0.1c0,0,0,0,0,0c0,0,0,0,0,0.1
					c0,0.1,0,0.3-0.1,0.4C5219,2539.6,5218.3,2539.6,5217.1,2539.6C5217.2,2539.7,5217.2,2539.7,5217.1,2539.6
					C5217.1,2539.6,5217.1,2539.6,5217.1,2539.6z"/>
				<path class="st5" d="M5219.9,2541.1c0-0.1,0-0.1,0-0.1c0.1,0,0.2,0,0.3,0c0.1,0,0.2-0.1,0.2-0.1c0-0.1,0.1-0.3,0.1-0.7v-3.1
					c0-0.3,0-0.5-0.1-0.7c0,0-0.1-0.1-0.1-0.1c-0.1,0-0.1,0-0.2,0s-0.1,0-0.2,0c0,0,0-0.1,0-0.1c0-0.1,0-0.1,0-0.1c0.4,0,0.8,0,1,0
					c0.1,0,0.3,0,0.6,0c0.3,0,0.5,0,0.6,0c0.4,0,0.8,0.1,1.2,0.2c0.4,0.1,0.7,0.3,0.9,0.5c0.2,0.2,0.4,0.5,0.6,0.8
					c0.1,0.3,0.2,0.7,0.2,1c0,0.4-0.1,0.8-0.2,1.1c-0.1,0.3-0.3,0.6-0.6,0.8c-0.2,0.2-0.6,0.4-0.9,0.5c-0.4,0.1-0.8,0.2-1.3,0.2
					h-2.1C5219.9,2541.2,5219.9,2541.2,5219.9,2541.1z M5221.4,2540.2c0,0,0,0.1,0,0.2c0,0.1,0,0.1,0,0.2c0,0.1,0,0.2,0,0.2
					c0,0,0.1,0.1,0.2,0.1s0.2,0,0.4,0c0.3,0,0.6,0,0.8-0.1c0.2-0.1,0.4-0.2,0.6-0.4c0.2-0.2,0.3-0.4,0.4-0.7s0.1-0.6,0.1-1
					c0-0.3,0-0.6-0.1-0.9s-0.2-0.5-0.3-0.7c-0.1-0.2-0.3-0.3-0.5-0.5c-0.2-0.1-0.4-0.2-0.6-0.3c-0.2-0.1-0.4-0.1-0.7-0.1
					c-0.1,0-0.2,0-0.3,0s-0.2,0-0.2,0.1c0,0.1,0,0.2,0,0.5L5221.4,2540.2L5221.4,2540.2z"/>
				<path class="st5" d="M5225.6,2538.2C5225.6,2538.2,5225.6,2538.2,5225.6,2538.2c0-0.1,0-0.1,0-0.1c0.2,0,0.5-0.1,0.7-0.1
					c0.2-0.1,0.4-0.1,0.6-0.2c0,0,0,0,0.1,0.1c0,0,0,0.1,0,0.1c0,0,0,0.1,0,0.2c0,0.1,0,0.2,0,0.2v0.4v1.5c0,0.3,0,0.6,0,0.7
					c0,0,0.1,0.1,0.2,0.1c0.1,0,0.2,0,0.3,0c0,0,0,0.1,0,0.1s0,0.1,0,0.1c-0.4,0-0.7,0-0.9,0c-0.2,0-0.5,0-0.9,0c0,0,0-0.1,0-0.1
					s0-0.1,0-0.1c0,0,0.1,0,0.2,0c0.1,0,0.1,0,0.2,0c0.1,0,0.1,0,0.1-0.1c0,0,0-0.1,0-0.1s0-0.1,0-0.2s0-0.1,0-0.2c0,0,0-0.1,0-0.2
					v-1.2c0-0.3,0-0.5-0.1-0.5c0-0.1-0.1-0.1-0.2-0.1c-0.1,0-0.2,0-0.3,0C5225.6,2538.3,5225.6,2538.3,5225.6,2538.2z M5226,2536.5
					c0-0.1,0.1-0.2,0.2-0.3c0.1-0.1,0.2-0.1,0.4-0.1c0.1,0,0.2,0,0.3,0.1c0.1,0.1,0.1,0.2,0.1,0.3c0,0.1,0,0.2-0.1,0.3
					c-0.1,0.1-0.2,0.1-0.3,0.1c-0.2,0-0.3,0-0.4-0.1C5226,2536.7,5226,2536.6,5226,2536.5z"/>
				<path class="st5" d="M5228,2540.2C5228,2540.2,5228.1,2540.2,5228,2540.2c0.1,0,0.1,0,0.1,0c0.1,0,0.1,0,0.1,0
					c0.1,0.2,0.2,0.4,0.3,0.6c0.2,0.1,0.3,0.2,0.5,0.2c0.1,0,0.2,0,0.3-0.1c0.1,0,0.1-0.1,0.2-0.2c0-0.1,0.1-0.2,0.1-0.3
					c0-0.1,0-0.1,0-0.2c0-0.1-0.1-0.1-0.1-0.2s-0.1-0.1-0.2-0.1s-0.1-0.1-0.2-0.1s-0.1-0.1-0.2-0.1c-0.1,0-0.2-0.1-0.2-0.1
					c-0.1-0.1-0.2-0.1-0.3-0.2c-0.1-0.1-0.2-0.1-0.2-0.2c-0.1-0.1-0.1-0.2-0.2-0.3s-0.1-0.2-0.1-0.3c0-0.1,0-0.2,0.1-0.3
					c0-0.1,0.1-0.2,0.2-0.3c0.1-0.1,0.1-0.1,0.2-0.2c0.1-0.1,0.2-0.1,0.3-0.1c0.1,0,0.2-0.1,0.3-0.1s0.2,0,0.3,0s0.2,0,0.3,0
					s0.2,0,0.3,0.1c0.1,0,0.2,0,0.3,0.1c0,0.1,0.1,0.3,0.1,0.5c0,0.2,0,0.3,0,0.4c0,0,0,0,0,0c0,0,0,0-0.1,0c0,0-0.1,0-0.1,0
					c0-0.1-0.1-0.2-0.1-0.3c0-0.1-0.1-0.2-0.1-0.2c-0.1-0.1-0.1-0.1-0.2-0.2c-0.1,0-0.2-0.1-0.3-0.1c-0.2,0-0.3,0-0.4,0.1
					c-0.1,0.1-0.1,0.2-0.1,0.3c0,0,0,0.1,0,0.1c0,0,0,0.1,0,0.1s0,0.1,0.1,0.1s0.1,0.1,0.1,0.1s0.1,0,0.1,0.1c0,0,0.1,0,0.1,0.1
					c0,0,0.1,0,0.1,0.1s0.1,0,0.1,0.1c0,0,0,0,0.1,0c0.1,0,0.1,0.1,0.2,0.1s0.1,0.1,0.2,0.1s0.1,0.1,0.2,0.1s0.1,0.1,0.1,0.1
					c0,0,0.1,0.1,0.1,0.2c0,0,0,0.1,0.1,0.2c0,0.1,0,0.1,0,0.2c0,0.2,0,0.3-0.1,0.5c-0.1,0.1-0.2,0.3-0.3,0.3s-0.3,0.2-0.4,0.2
					c-0.2,0-0.3,0.1-0.5,0.1c-0.1,0-0.2,0-0.3,0c-0.1,0-0.2,0-0.4-0.1s-0.2-0.1-0.3-0.1c0-0.1,0-0.2-0.1-0.5
					C5228,2540.5,5228,2540.3,5228,2540.2z"/>
				<path class="st5" d="M5231,2539.7c0-0.3,0.1-0.5,0.2-0.7s0.3-0.4,0.5-0.6c0.2-0.2,0.4-0.3,0.6-0.4c0.2-0.1,0.5-0.2,0.7-0.2
					c0.3,0,0.6,0.1,0.8,0.2c0.1,0.1,0.1,0.2,0.1,0.3c0,0.1,0,0.2-0.1,0.3c-0.1,0.1-0.2,0.1-0.3,0.1c-0.1,0-0.1,0-0.2,0
					s-0.1-0.1-0.2-0.2c-0.1-0.1-0.1-0.1-0.1-0.1c-0.1-0.1-0.2-0.1-0.2-0.1c-0.1,0-0.2,0-0.3,0c-0.1,0-0.2,0-0.3,0.1
					s-0.2,0.2-0.2,0.3c-0.1,0.1-0.1,0.2-0.2,0.4s-0.1,0.3-0.1,0.5c0,0.1,0,0.3,0,0.4c0,0.1,0.1,0.2,0.1,0.3c0,0.1,0.1,0.2,0.1,0.2
					c0.1,0.1,0.1,0.1,0.2,0.2s0.1,0.1,0.2,0.1c0.1,0,0.2,0.1,0.2,0.1c0.1,0,0.2,0,0.3,0c0.3,0,0.6-0.1,0.9-0.4c0,0,0,0,0.1,0
					s0,0.1,0,0.1c0,0.1,0,0.1,0,0.1c0,0-0.1,0.1-0.1,0.2s-0.1,0.1-0.2,0.2c-0.1,0.1-0.2,0.1-0.3,0.2s-0.2,0.1-0.3,0.1
					c-0.1,0-0.3,0.1-0.4,0.1c-0.3,0-0.6-0.1-0.8-0.2c-0.2-0.1-0.4-0.3-0.6-0.6C5231.1,2540.3,5231,2540,5231,2539.7z"/>
				<path class="st5" d="M5234.4,2539.5c0-0.2,0-0.5,0.1-0.7s0.2-0.4,0.4-0.6c0.2-0.2,0.3-0.3,0.6-0.4c0.2-0.1,0.4-0.1,0.7-0.1
					c0.3,0,0.5,0,0.7,0.1c0.2,0.1,0.4,0.2,0.6,0.4c0.2,0.2,0.3,0.3,0.4,0.6s0.1,0.4,0.1,0.7s0,0.5-0.1,0.7c-0.1,0.2-0.2,0.4-0.4,0.6
					c-0.2,0.2-0.3,0.3-0.6,0.4c-0.2,0.1-0.4,0.1-0.7,0.1c-0.3,0-0.5,0-0.7-0.1c-0.2-0.1-0.4-0.2-0.6-0.4c-0.1-0.2-0.3-0.3-0.4-0.6
					S5234.4,2539.8,5234.4,2539.5z M5235.3,2539.4c0,0.1,0,0.3,0,0.4c0,0.1,0.1,0.3,0.1,0.4c0,0.1,0.1,0.3,0.2,0.4
					c0.1,0.1,0.2,0.2,0.3,0.3c0.1,0.1,0.2,0.1,0.3,0.1c0.1,0,0.2,0,0.3-0.1c0.1-0.1,0.2-0.1,0.2-0.2c0.1-0.1,0.1-0.2,0.1-0.3
					c0-0.1,0.1-0.2,0.1-0.4c0-0.1,0-0.2,0-0.4c0-0.1,0-0.3,0-0.4c0-0.1-0.1-0.3-0.1-0.4c-0.1-0.1-0.1-0.3-0.2-0.4
					c-0.1-0.1-0.2-0.2-0.3-0.3c-0.1-0.1-0.2-0.1-0.3-0.1c-0.1,0-0.2,0-0.3,0.1c-0.1,0.1-0.2,0.1-0.2,0.2c-0.1,0.1-0.1,0.2-0.1,0.3
					c0,0.1-0.1,0.2-0.1,0.4C5235.3,2539.1,5235.3,2539.2,5235.3,2539.4z"/>
				<path class="st5" d="M5238.1,2537.9c0-0.1,0-0.1,0-0.1c0.1,0,0.1,0,0.3,0s0.2,0,0.4,0c0.1,0,0.2,0,0.3,0s0.2,0,0.3,0
					c0.1,0,0.2,0,0.3,0s0.2,0,0.3,0c0,0,0,0.1,0,0.1s0,0.1,0,0.1c-0.1,0-0.2,0-0.3,0s-0.2,0.1-0.2,0.1c0,0,0,0.1,0,0.1
					c0,0.1,0.1,0.3,0.3,0.6c0.1,0.3,0.3,0.6,0.4,0.9l0.2,0.4c0.2-0.6,0.5-1.1,0.7-1.6c0-0.1,0.1-0.2,0.1-0.3c0,0,0-0.1-0.1-0.1
					c0,0-0.1-0.1-0.1-0.1s-0.1,0-0.2,0c-0.1,0-0.1,0-0.1,0c0,0,0,0,0-0.1s0-0.1,0-0.1c0,0,0.1,0,0.2,0s0.1,0,0.2,0s0.1,0,0.2,0
					c0.1,0,0.1,0,0.2,0c0.1,0,0.2,0,0.3,0c0.1,0,0.2,0,0.3,0s0.2,0,0.2,0c0,0,0,0,0,0.1c0,0,0,0,0,0c0,0.1,0,0.1,0,0.1
					c0,0-0.1,0-0.2,0s-0.1,0-0.2,0.1c-0.1,0-0.1,0.1-0.2,0.2c-0.1,0.1-0.2,0.6-0.6,1.3c-0.3,0.7-0.5,1.2-0.6,1.4
					c0,0.1-0.1,0.1-0.1,0.2s-0.1,0.1-0.1,0.1s-0.1,0-0.1,0c0,0-0.1,0-0.1,0c-0.1-0.3-0.3-0.6-0.4-1c-0.2-0.4-0.3-0.8-0.5-1.1
					s-0.3-0.6-0.4-0.9c0,0-0.1-0.1-0.1-0.1c0,0-0.1-0.1-0.1-0.1s-0.1,0-0.1,0c0,0-0.1,0-0.1,0
					C5238.1,2538,5238.1,2538,5238.1,2537.9z"/>
				<path class="st5" d="M5242.1,2539.7c0-0.2,0-0.5,0.1-0.7s0.2-0.4,0.4-0.6c0.2-0.2,0.3-0.3,0.5-0.4c0.2-0.1,0.4-0.2,0.6-0.2
					c0.2,0,0.3,0,0.4,0.1c0.1,0,0.2,0.1,0.3,0.1c0.1,0.1,0.2,0.1,0.2,0.2c0.1,0.1,0.1,0.2,0.2,0.2c0,0.1,0.1,0.2,0.1,0.2
					c0,0.1,0,0.1,0,0.2c0,0.1,0,0.2,0,0.3s-0.1,0.1-0.1,0.1c-0.3,0-0.9,0-1.9,0.1c0,0,0,0,0,0c0,0.2,0,0.3,0,0.4
					c0,0.1,0.1,0.3,0.1,0.4c0.1,0.1,0.1,0.2,0.2,0.3c0.1,0.1,0.2,0.1,0.3,0.2c0.1,0,0.2,0.1,0.3,0.1c0.1,0,0.2,0,0.3,0
					c0.1,0,0.2,0,0.3,0c0.1,0,0.2-0.1,0.3-0.1s0.1-0.1,0.2-0.1c0.1,0,0.1-0.1,0.1-0.1c0,0,0,0,0.1,0s0,0.1,0,0.1c0,0,0,0.1,0,0.1
					c0,0.1-0.1,0.1-0.2,0.2c-0.1,0.1-0.2,0.1-0.3,0.2c-0.1,0.1-0.2,0.1-0.4,0.2c-0.1,0.1-0.3,0.1-0.5,0.1c-0.3,0-0.6-0.1-0.8-0.2
					c-0.2-0.1-0.4-0.3-0.6-0.6S5242.1,2540,5242.1,2539.7z M5243,2539c0.1,0,0.3,0,0.6,0c0.3,0,0.5,0,0.6,0c0,0,0.1,0,0.1,0
					s0-0.1,0-0.1c0-0.1,0-0.2,0-0.2s0-0.2-0.1-0.2s-0.1-0.1-0.2-0.2c-0.1-0.1-0.2-0.1-0.3-0.1c-0.1,0-0.2,0-0.3,0.1
					c-0.1,0.1-0.2,0.1-0.2,0.2c-0.1,0.1-0.1,0.2-0.1,0.3s-0.1,0.2-0.1,0.2S5243,2539,5243,2539z"/>
				<path class="st5" d="M5245.5,2538.2C5245.5,2538.2,5245.5,2538.2,5245.5,2538.2c0-0.1,0-0.1,0-0.1c0.2,0,0.5-0.1,0.7-0.1
					s0.4-0.1,0.6-0.2c0,0,0,0,0.1,0.1s0,0.1,0,0.1c0,0,0,0.1,0,0.2c0,0.1,0,0.2,0,0.3c0,0.1,0,0.2,0,0.2c0,0,0,0,0,0c0,0,0,0,0,0
					c0-0.1,0.1-0.2,0.2-0.3c0.1-0.1,0.1-0.2,0.2-0.3s0.2-0.2,0.3-0.2c0.1,0,0.2-0.1,0.3-0.1s0.2,0,0.3,0c0.1,0,0.2,0.1,0.2,0.1
					c0,0.1,0.1,0.2,0.1,0.3c0,0.1,0,0.3-0.1,0.4c-0.1,0.1-0.2,0.2-0.3,0.2c0,0-0.1,0-0.1,0c0,0-0.1,0-0.1-0.1s-0.1-0.1-0.1-0.1
					c0,0,0,0,0,0c0,0,0,0,0,0c0,0,0,0,0,0s0,0,0,0s0,0,0,0s0,0,0,0s0,0,0,0s0,0-0.1,0c-0.1,0-0.1,0-0.2,0s-0.1,0.1-0.1,0.1
					s-0.1,0.1-0.1,0.1c0,0.1-0.1,0.1-0.1,0.2s0,0.1-0.1,0.1c0,0,0,0.1,0,0.1v1.1c0,0.3,0,0.6,0,0.7c0,0,0.1,0.1,0.3,0.1
					c0.2,0,0.3,0,0.4,0c0,0,0,0.1,0,0.1s0,0.1,0,0.1c-0.4,0-0.8,0-1.1,0c-0.2,0-0.6,0-1,0c0,0,0-0.1,0-0.1s0-0.1,0-0.1
					c0,0,0.1,0,0.2,0s0.1,0,0.2,0s0.1,0,0.1-0.1c0,0,0-0.1,0-0.1s0-0.1,0-0.2s0-0.1,0-0.2c0,0,0-0.1,0-0.2v-1.2c0-0.3,0-0.5-0.1-0.5
					c0-0.1-0.1-0.1-0.2-0.1s-0.2,0-0.3,0C5245.6,2538.3,5245.5,2538.3,5245.5,2538.2z"/>
				<path class="st5" d="M5248.6,2537.8c0.4,0,0.7,0.1,0.9,0.1c0.2,0,0.5,0,0.9-0.1c0,0,0,0.1,0,0.1s0,0.1,0,0.1c-0.1,0-0.2,0-0.3,0
					s-0.2,0.1-0.2,0.1c0,0,0,0.1,0,0.1c0,0.1,0.1,0.3,0.3,0.6s0.3,0.6,0.4,0.9l0.2,0.4c0.3-0.6,0.5-1.1,0.7-1.6
					c0-0.1,0.1-0.2,0.1-0.3c0,0,0-0.1-0.1-0.1s-0.1-0.1-0.1-0.1s-0.1,0-0.2,0s-0.1,0-0.1,0c0,0,0,0,0-0.1s0-0.1,0-0.1
					c0.3,0,0.5,0.1,0.8,0.1c0.2,0,0.4,0,0.7-0.1c0,0,0,0.1,0,0.1c0,0,0,0,0,0c0,0.1,0,0.1,0,0.1c0,0-0.1,0-0.2,0s-0.1,0-0.2,0.1
					c-0.1,0-0.1,0.1-0.2,0.2c-0.1,0.2-0.2,0.4-0.3,0.7c-0.1,0.3-0.3,0.7-0.5,1c-0.2,0.4-0.3,0.7-0.5,1c0,0,0,0.1-0.1,0.2
					c0,0.1-0.1,0.2-0.1,0.2c0,0,0,0.1-0.1,0.2s-0.1,0.1-0.1,0.2s-0.1,0.1-0.1,0.2c0,0.1-0.1,0.1-0.1,0.2s-0.1,0.1-0.1,0.2
					c-0.1,0.1-0.2,0.2-0.3,0.3s-0.2,0.1-0.3,0.2c-0.1,0-0.2,0.1-0.3,0.1c-0.1,0-0.2,0-0.2,0c-0.1,0-0.1-0.1-0.2-0.1
					s-0.1-0.1-0.1-0.2c0-0.1,0-0.2,0.1-0.3c0.3,0,0.5,0,0.6-0.1s0.3-0.2,0.5-0.4c0,0,0-0.1,0.1-0.1s0-0.1,0.1-0.1c0,0,0-0.1,0.1-0.1
					s0-0.1,0-0.1s0-0.1,0-0.1s0-0.1,0-0.1c-0.3-0.8-0.8-1.7-1.3-2.8c0,0-0.1-0.1-0.1-0.1c0,0-0.1-0.1-0.1-0.1c0,0-0.1,0-0.1,0
					s-0.1,0-0.1,0c0,0,0-0.1,0-0.1C5248.6,2537.9,5248.6,2537.8,5248.6,2537.8z"/>
				<path class="st6" d="M5161.4,2554.9c-0.1,0-0.1,0-0.2,0c0,0-0.1-0.1-0.1-0.1c0-0.1,0-0.2,0-0.4c0-0.2,0.1-0.5,0.2-0.8
					c0.1-0.4,0.3-0.9,0.6-1.6c0-0.1,0.1-0.1,0.1-0.1c0.1,0,0.1,0,0.2,0c0.1,0,0.1,0.1,0.1,0.1s0,0.1,0,0.2c-0.2,0.3-0.3,0.7-0.4,1.1
					c-0.1,0.4-0.3,0.7-0.3,0.9c0,0,0,0,0,0c0,0,0,0,0,0l0.2-0.2c0.3-0.4,0.5-0.7,0.7-0.9c0.2-0.2,0.4-0.4,0.5-0.6
					c0.1-0.1,0.2-0.2,0.3-0.2s0.2,0,0.3,0c0.1,0,0.2,0.1,0.2,0.3c0,0.1,0,0.3,0,0.5c0,0.1,0,0.2-0.1,0.3c0,0.1-0.1,0.2-0.1,0.3
					c0,0,0,0.1,0,0.1c0,0,0,0.1,0,0.1c0.1-0.1,0.3-0.3,0.4-0.5c0.2-0.2,0.4-0.5,0.7-0.8c0.5-0.6,1-1.1,1.3-1.5
					c0.3-0.3,0.6-0.6,0.7-0.7c0.2-0.1,0.3-0.2,0.3-0.2s0.1,0,0.2,0c0.1,0,0.2,0.1,0.2,0.2c0,0.1,0,0.1,0,0.2c0,0-0.1,0.1-0.1,0.1
					c0,0-0.1,0.1-0.2,0.1c-0.1,0.1-0.2,0.2-0.4,0.4s-0.4,0.4-0.6,0.7c-0.3,0.3-0.6,0.7-1,1.1c-0.4,0.4-0.6,0.7-0.9,0.9
					c-0.2,0.2-0.4,0.4-0.5,0.5c-0.1,0.1-0.2,0.2-0.3,0.2s-0.1,0-0.2,0c-0.1-0.1-0.2-0.2-0.2-0.3c0-0.2,0-0.4,0.1-0.6
					c0-0.1,0-0.2,0.1-0.3s0-0.2,0.1-0.3c0,0,0,0,0,0s0,0,0,0c-0.1,0.1-0.3,0.3-0.5,0.6s-0.4,0.5-0.6,0.8l-0.2,0.2
					c-0.1,0.2-0.3,0.3-0.4,0.4C5161.6,2554.9,5161.5,2554.9,5161.4,2554.9z"/>
				<path class="st6" d="M5170.2,2552.6c0,0,0.1,0.1,0,0.2c0,0.1,0,0.1-0.1,0.2c-0.4,0.3-0.8,0.6-1.1,0.8c-0.3,0.2-0.6,0.4-0.8,0.5
					c-0.2,0.1-0.4,0.2-0.6,0.2c-0.2,0-0.3,0.1-0.4,0.1c-0.2,0-0.3,0-0.4-0.1c-0.1-0.1-0.2-0.3-0.2-0.5c0-0.2,0-0.4,0.1-0.6
					c0.1-0.2,0.1-0.4,0.2-0.6s0.2-0.3,0.2-0.5c0-0.1,0.1-0.1,0.1-0.1s0.1,0,0.2,0c0.1,0.1,0.2,0.2,0.1,0.3c-0.1,0.2-0.2,0.4-0.3,0.5
					c-0.1,0.2-0.1,0.3-0.2,0.5c0,0.1-0.1,0.3-0.1,0.4c0,0.1,0,0.2,0,0.2c0.1,0,0.3,0,0.5-0.1c0.2-0.1,0.5-0.2,0.8-0.4
					c0.3-0.2,0.8-0.5,1.4-1C5170,2552.4,5170.1,2552.5,5170.2,2552.6z M5167.6,2551.8c0,0-0.1-0.1-0.1-0.1c0-0.1,0-0.1,0-0.2
					l0.2-0.3c0.1-0.1,0.2-0.1,0.3,0c0,0,0.1,0.1,0.1,0.2c0,0.1,0,0.1,0,0.2l-0.2,0.3c0,0.1-0.1,0.1-0.2,0.1
					C5167.6,2551.8,5167.6,2551.8,5167.6,2551.8z"/>
				<path class="st6" d="M5176,2549.1c0,0.1,0,0.2-0.2,0.3c-1,0.1-1.9,0.2-2.6,0.3c-0.7,0.1-1.4,0.2-1.9,0.2c-0.2,0.5-0.3,1-0.5,1.6
					s-0.3,1.2-0.5,1.8c-0.2,0.6-0.3,1.3-0.4,1.9c-0.1,0.6-0.2,1.2-0.3,1.8c0,0,0,0.1-0.1,0.1c0,0-0.1,0.1-0.2,0.1h0
					c-0.2,0-0.2-0.1-0.2-0.3c0.1-0.6,0.1-1.2,0.3-1.8c0.1-0.6,0.3-1.2,0.4-1.9c0.2-0.6,0.3-1.2,0.5-1.8s0.3-1.1,0.5-1.6
					c-0.4,0.1-0.7,0.1-0.9,0.2c-0.3,0-0.5,0.1-0.7,0.1c-0.2,0-0.3,0.1-0.5,0.1c-0.1,0-0.2,0.1-0.3,0.1c0.1,0.1,0.1,0.2,0.1,0.2
					c0,0.1-0.1,0.2-0.2,0.2h-0.1c-0.3-0.1-0.4-0.2-0.4-0.4c0-0.1,0-0.1,0.1-0.2c0-0.1,0.2-0.1,0.4-0.2c0.2-0.1,0.5-0.2,0.9-0.3
					c0.4-0.1,1-0.2,1.8-0.3c0.2-0.6,0.4-1.1,0.5-1.4c0.1-0.4,0.2-0.5,0.2-0.5c0-0.1,0.1-0.2,0.3-0.1c0.1,0,0.1,0.1,0.1,0.1
					c0,0.1,0,0.1,0,0.2c0,0-0.1,0.2-0.2,0.5s-0.3,0.7-0.4,1.2c0.6-0.1,1.2-0.1,1.9-0.2c0.7-0.1,1.5-0.2,2.4-0.3c0.1,0,0.1,0,0.2,0
					S5176,2549,5176,2549.1z"/>
				<path class="st6" d="M5177.2,2552.5c0,0,0.1,0.1,0,0.2c0,0.1-0.1,0.1-0.1,0.1c-0.1,0.1-0.2,0.1-0.4,0.3
					c-0.2,0.1-0.4,0.3-0.7,0.4c-0.3,0.1-0.5,0.2-0.8,0.3c-0.2,0.1-0.5,0-0.6-0.1c-0.2-0.1-0.3-0.4-0.3-0.9c0,0,0-0.1,0-0.1
					c-0.1,0.1-0.2,0.2-0.4,0.3c-0.1,0.1-0.3,0.3-0.5,0.5c-0.2,0.2-0.3,0.4-0.5,0.7c-0.2,0.2-0.4,0.5-0.5,0.7c0,0.1-0.1,0.1-0.2,0.1
					c0,0-0.1,0-0.1,0c-0.1,0-0.2-0.1-0.2-0.3c0.1-0.7,0.3-1.5,0.5-2.2c0.2-0.8,0.4-1.4,0.5-2.1c0.2-0.6,0.3-1.1,0.5-1.5
					c0.1-0.4,0.2-0.6,0.2-0.6c0-0.2,0.1-0.2,0.3-0.2c0,0,0.1,0.1,0.1,0.1c0,0.1,0,0.1,0,0.2c0,0,0,0.2-0.1,0.5s-0.2,0.7-0.4,1.2
					c-0.1,0.5-0.3,1.1-0.5,1.7c-0.2,0.6-0.3,1.3-0.5,1.9c0.9-1.2,1.5-1.7,1.9-1.6c0.1,0,0.1,0.1,0.2,0.1c0,0.1,0.1,0.1,0.1,0.2
					s0,0.1,0,0.2c0,0.1,0,0.1,0,0.1c0,0.1,0,0.1,0,0.2s0,0.1,0.1,0.2c0.1,0,0.2,0.1,0.3,0c0.1,0,0.3-0.1,0.5-0.2s0.4-0.2,0.6-0.3
					c0.2-0.1,0.4-0.2,0.6-0.4c0,0,0.1-0.1,0.2-0.1C5177.1,2552.5,5177.2,2552.5,5177.2,2552.5z"/>
				<path class="st6" d="M5196.9,2548.3c0.2,0,0.2,0.1,0.2,0.2c0,0.1,0,0.1,0,0.2c0,0-0.1,0.1-0.2,0.1c-1.5,0-2.8,0.1-4,0.1
					c-1.2,0-2.2,0.1-3.2,0.1c-0.1,0.2-0.2,0.6-0.4,1.1c-0.2,0.6-0.4,1.3-0.6,2.1c-0.2,0.9-0.4,1.8-0.5,2.9c-0.2,1.1-0.3,2.2-0.3,3.4
					c0,0,0,0.1-0.1,0.1s-0.1,0.1-0.2,0.1c-0.1,0-0.1,0-0.2-0.1c0,0-0.1-0.1-0.1-0.2c0-1.1,0.1-2.2,0.3-3.2c0.2-1,0.3-2,0.5-2.8
					c0.2-0.8,0.4-1.6,0.5-2.2c0.2-0.6,0.3-1,0.4-1.3c-1.1,0.1-2,0.1-2.7,0.2s-1.4,0.1-1.9,0.1c-0.5,0-0.9,0.1-1.2,0.1
					c-0.3,0-0.5,0.1-0.7,0.1c0.1,0,0.2,0,0.3,0.1s0.2,0,0.4,0.1c0.2,0,0.2,0.1,0.2,0.3c0,0.1-0.1,0.2-0.2,0.2h0
					c-0.3,0-0.6-0.1-0.8-0.1s-0.3-0.1-0.4-0.2c-0.1-0.1-0.1-0.1-0.1-0.2s0-0.1,0-0.1c0,0,0-0.1,0-0.1s0.1-0.1,0.2-0.1
					c0.1-0.1,0.3-0.1,0.6-0.2c0.3-0.1,0.6-0.1,1.1-0.2c0.5-0.1,1.1-0.1,1.8-0.2c0.7-0.1,1.6-0.1,2.6-0.2s2.3-0.1,3.7-0.1
					C5193.4,2548.4,5195.1,2548.4,5196.9,2548.3z"/>
				<path class="st6" d="M5197.2,2552.5c0,0,0.1,0.1,0,0.2c0,0.1-0.1,0.1-0.1,0.1c-0.1,0.1-0.2,0.1-0.4,0.3
					c-0.2,0.1-0.4,0.3-0.7,0.4c-0.3,0.1-0.5,0.2-0.8,0.3c-0.2,0.1-0.5,0-0.6-0.1c-0.2-0.1-0.3-0.4-0.3-0.9c0,0,0-0.1,0-0.1
					c-0.1,0.1-0.2,0.2-0.4,0.3c-0.1,0.1-0.3,0.3-0.5,0.5c-0.2,0.2-0.3,0.4-0.5,0.7c-0.2,0.2-0.4,0.5-0.5,0.7c0,0.1-0.1,0.1-0.2,0.1
					c0,0-0.1,0-0.1,0c-0.1,0-0.2-0.1-0.2-0.3c0.1-0.7,0.3-1.5,0.5-2.2c0.2-0.8,0.4-1.4,0.5-2.1c0.2-0.6,0.3-1.1,0.5-1.5
					c0.1-0.4,0.2-0.6,0.2-0.6c0-0.2,0.1-0.2,0.3-0.2c0,0,0.1,0.1,0.1,0.1c0,0.1,0,0.1,0,0.2c0,0,0,0.2-0.1,0.5
					c-0.1,0.3-0.2,0.7-0.4,1.2c-0.1,0.5-0.3,1.1-0.5,1.7c-0.2,0.6-0.3,1.3-0.5,1.9c0.9-1.2,1.5-1.7,1.9-1.6c0.1,0,0.1,0.1,0.2,0.1
					c0,0.1,0.1,0.1,0.1,0.2s0,0.1,0,0.2c0,0.1,0,0.1,0,0.1c0,0.1,0,0.1,0,0.2s0,0.1,0.1,0.2c0.1,0,0.2,0.1,0.3,0
					c0.1,0,0.3-0.1,0.5-0.2c0.2-0.1,0.4-0.2,0.6-0.3c0.2-0.1,0.4-0.2,0.6-0.4c0,0,0.1-0.1,0.2-0.1
					C5197.1,2552.5,5197.1,2552.5,5197.2,2552.5z"/>
				<path class="st6" d="M5201.3,2552.6c0,0.1,0,0.1,0,0.2c0,0.1-0.1,0.1-0.1,0.1c-0.6,0.3-1.1,0.6-1.4,0.7
					c-0.4,0.2-0.7,0.3-0.9,0.3c-0.2,0.1-0.4,0.1-0.5,0c-0.1,0-0.2-0.1-0.3-0.1c-0.1-0.1-0.2-0.2-0.1-0.4c0-0.2,0.1-0.3,0.1-0.5
					c-0.1,0.1-0.2,0.1-0.3,0.2c-0.1,0.1-0.2,0.1-0.3,0.2c-0.4,0.3-0.7,0.5-0.9,0.6c-0.2,0.1-0.4,0.2-0.5,0.2c-0.1,0-0.1,0-0.2-0.1
					c-0.1-0.1-0.1-0.2,0-0.4c0.1-0.1,0.2-0.3,0.3-0.4c0.6-0.7,1.1-1.1,1.6-1.2c0.2,0,0.3,0.1,0.4,0.2c0.1-0.1,0.2-0.1,0.3-0.1
					s0.1,0,0.2,0.1c0,0,0.1,0.1,0.1,0.1c0,0.1,0,0.1,0,0.2c0,0.1-0.1,0.1-0.1,0.3c0,0.1-0.1,0.2-0.2,0.4c-0.1,0.2-0.1,0.3-0.1,0.3
					c0,0,0,0,0.1,0c0.1,0,0.2,0,0.4-0.1c0.2-0.1,0.4-0.2,0.8-0.3c0.3-0.2,0.8-0.4,1.3-0.7
					C5201.1,2552.4,5201.2,2552.4,5201.3,2552.6z M5197.1,2553c0.1-0.1,0.2-0.1,0.2-0.2c0.1,0,0.2-0.1,0.2-0.1
					c-0.1,0-0.2,0.1-0.4,0.1c-0.1,0.1-0.3,0.2-0.5,0.5c0.1,0,0.1-0.1,0.2-0.1C5197,2553.1,5197.1,2553.1,5197.1,2553z"/>
				<path class="st6" d="M5204.2,2552.6c0,0,0.1,0.1,0,0.2c0,0.1,0,0.1-0.1,0.2c-0.4,0.3-0.8,0.6-1.1,0.8c-0.3,0.2-0.6,0.4-0.8,0.5
					c-0.2,0.1-0.4,0.2-0.6,0.2c-0.2,0-0.3,0.1-0.4,0.1c-0.2,0-0.3,0-0.4-0.1c-0.1-0.1-0.2-0.3-0.2-0.5c0-0.2,0-0.4,0.1-0.6
					c0.1-0.2,0.1-0.4,0.2-0.6s0.2-0.3,0.2-0.5c0-0.1,0.1-0.1,0.1-0.1c0.1,0,0.1,0,0.2,0c0.1,0.1,0.2,0.2,0.1,0.3
					c-0.1,0.2-0.2,0.4-0.3,0.5c-0.1,0.2-0.1,0.3-0.2,0.5c0,0.1-0.1,0.3-0.1,0.4c0,0.1,0,0.2,0,0.2c0.1,0,0.3,0,0.5-0.1
					c0.2-0.1,0.5-0.2,0.8-0.4c0.3-0.2,0.8-0.5,1.4-1C5204,2552.4,5204.1,2552.5,5204.2,2552.6z M5201.6,2551.8c0,0-0.1-0.1-0.1-0.1
					c0-0.1,0-0.1,0-0.2l0.2-0.3c0.1-0.1,0.2-0.1,0.3,0c0,0,0.1,0.1,0.1,0.2c0,0.1,0,0.1,0,0.2l-0.2,0.3c0,0.1-0.1,0.1-0.2,0.1
					C5201.7,2551.8,5201.6,2551.8,5201.6,2551.8z"/>
				<path class="st6" d="M5211.4,2551.8c0.1,0.1,0.1,0.2,0,0.3c-0.1,0.1-0.2,0.3-0.4,0.4c0,0-0.1,0-0.1,0.1c0,0-0.1,0-0.1,0
					c-0.1,0.2-0.3,0.3-0.5,0.5c-0.2,0.2-0.3,0.4-0.5,0.6c-0.1,0.2-0.3,0.4-0.4,0.6c-0.1,0.2-0.2,0.4-0.3,0.5c0,0.1-0.1,0.1-0.2,0.1
					c0,0,0,0-0.1,0c-0.1,0-0.2-0.1-0.2-0.2c0-0.3,0-0.7,0.1-1s0.2-0.6,0.3-0.9c0.1-0.3,0.2-0.5,0.3-0.6c0.1-0.2,0.2-0.3,0.2-0.3
					c0.1-0.1,0.2-0.1,0.3-0.1c0.1,0,0.1,0.1,0.1,0.1s0,0.1,0,0.2c-0.1,0.1-0.2,0.3-0.2,0.4c-0.1,0.1-0.1,0.3-0.2,0.4
					c-0.1,0.2-0.1,0.3-0.2,0.5c0.2-0.3,0.4-0.6,0.7-1c0.2-0.3,0.5-0.5,0.7-0.7c0.1-0.1,0.2-0.1,0.3-0.2
					C5211.2,2551.7,5211.3,2551.7,5211.4,2551.8z"/>
				<path class="st6" d="M5216.3,2552.5c0.1,0.1,0.1,0.2,0,0.3c0,0-0.1,0.1-0.4,0.3c-0.2,0.2-0.5,0.4-0.9,0.6
					c-0.3,0.2-0.7,0.4-1.2,0.6c-0.4,0.2-0.9,0.3-1.3,0.3c-0.2,0-0.3,0-0.5-0.1c-0.1-0.1-0.2-0.1-0.3-0.2c-0.1-0.1-0.1-0.1-0.1-0.2
					c0-0.1,0-0.1,0-0.2c0-0.2,0.1-0.4,0.2-0.6c0.1-0.2,0.3-0.4,0.5-0.6c0.2-0.2,0.4-0.4,0.6-0.5c0.2-0.1,0.4-0.2,0.5-0.2
					c0.1,0,0.1,0,0.2,0c0,0,0.1,0,0.1,0.1s0,0.1,0.1,0.1s0,0.1,0,0.2c0,0.1,0,0.2-0.1,0.4c-0.1,0.2-0.2,0.3-0.4,0.4
					c-0.2,0.1-0.3,0.3-0.5,0.4c-0.2,0.1-0.4,0.2-0.6,0.2c0,0,0,0.1,0,0.1c0,0,0,0.1,0,0.1c0,0,0.1,0.1,0.3,0.1
					c0.4,0,0.8-0.1,1.2-0.3c0.4-0.2,0.8-0.4,1.1-0.6c0.3-0.2,0.6-0.4,0.8-0.6c0.2-0.2,0.3-0.3,0.3-0.3c0,0,0.1-0.1,0.2-0.1
					C5216.2,2552.4,5216.3,2552.5,5216.3,2552.5z M5213.4,2552.5c-0.1,0-0.3,0.1-0.4,0.3c-0.2,0.1-0.3,0.3-0.4,0.5
					c0.2-0.1,0.4-0.2,0.6-0.3C5213.3,2552.7,5213.4,2552.6,5213.4,2552.5z"/>
				<path class="st6" d="M5215.8,2554.6c0,0-0.1,0-0.1,0c0,0-0.1-0.1-0.1-0.1c0-0.1,0-0.1,0-0.2c0.1-0.2,0.1-0.5,0.2-0.7
					c0.1-0.2,0.1-0.5,0.2-0.7c0.1-0.2,0.2-0.5,0.2-0.7c0-0.1,0.1-0.2,0.3-0.1c0.1,0,0.2,0.1,0.1,0.3c0,0.1-0.1,0.2-0.1,0.3
					c-0.1,0.2-0.1,0.4-0.2,0.7c0.2-0.2,0.3-0.3,0.5-0.4c0.2-0.1,0.3-0.3,0.5-0.4c0.1-0.1,0.3-0.2,0.4-0.2c0.1,0,0.3-0.1,0.4,0
					c0.2,0.1,0.3,0.3,0.3,0.7c0,0.1,0,0.2,0,0.3s0,0.1,0,0.1c0,0,0.1-0.1,0.2-0.1c0.1,0,0.2-0.1,0.2-0.1c0.2-0.1,0.3-0.2,0.5-0.3
					c0.2-0.1,0.3-0.1,0.5,0c0,0,0.1,0.1,0.2,0.1c0.1,0.1,0.1,0.1,0.1,0.2c0,0,0,0.1,0.1,0.1s0,0,0.1,0c0.1,0,0.2,0,0.4,0
					c0.2,0,0.3-0.1,0.5-0.2c0.2-0.1,0.4-0.2,0.6-0.3c0.2-0.1,0.4-0.2,0.5-0.3c0.1-0.1,0.2-0.1,0.3,0c0,0,0.1,0.1,0,0.2
					c0,0.1,0,0.1-0.1,0.1c-0.1,0-0.2,0.1-0.4,0.3c-0.2,0.1-0.4,0.2-0.6,0.4c-0.2,0.1-0.5,0.2-0.7,0.3c-0.2,0.1-0.5,0.1-0.6,0
					c-0.2-0.1-0.3-0.2-0.4-0.4c0,0,0,0,0,0c0,0,0,0,0,0c0,0-0.1,0-0.2,0.1s-0.2,0.1-0.3,0.2c-0.2,0.1-0.3,0.2-0.5,0.3
					c-0.2,0.1-0.3,0.1-0.4,0c-0.1-0.1-0.2-0.2-0.2-0.3c0-0.1,0-0.3,0-0.5c0-0.1,0-0.2,0-0.2l0,0c-0.1,0-0.1,0-0.3,0.1
					c-0.1,0.1-0.3,0.2-0.4,0.4c-0.2,0.2-0.3,0.3-0.5,0.6c-0.2,0.2-0.4,0.4-0.6,0.7C5215.9,2554.5,5215.8,2554.6,5215.8,2554.6z"/>
				<path class="st6" d="M5225.8,2552.5c0.1,0.1,0.1,0.2,0,0.3c0,0-0.1,0.1-0.4,0.3c-0.2,0.2-0.5,0.4-0.9,0.6
					c-0.3,0.2-0.7,0.4-1.2,0.6c-0.4,0.2-0.9,0.3-1.3,0.3c-0.2,0-0.3,0-0.5-0.1c-0.1-0.1-0.2-0.1-0.3-0.2c-0.1-0.1-0.1-0.1-0.1-0.2
					c0-0.1,0-0.1,0-0.2c0-0.2,0.1-0.4,0.2-0.6c0.1-0.2,0.3-0.4,0.5-0.6c0.2-0.2,0.4-0.4,0.6-0.5c0.2-0.1,0.4-0.2,0.5-0.2
					c0.1,0,0.1,0,0.2,0c0,0,0.1,0,0.1,0.1c0,0,0,0.1,0.1,0.1s0,0.1,0,0.2c0,0.1,0,0.2-0.1,0.4c-0.1,0.2-0.2,0.3-0.4,0.4
					c-0.2,0.1-0.3,0.3-0.5,0.4c-0.2,0.1-0.4,0.2-0.6,0.2c0,0,0,0.1,0,0.1c0,0,0,0.1,0,0.1c0,0,0.1,0.1,0.3,0.1
					c0.4,0,0.8-0.1,1.2-0.3c0.4-0.2,0.8-0.4,1.1-0.6c0.3-0.2,0.6-0.4,0.8-0.6c0.2-0.2,0.3-0.3,0.3-0.3c0,0,0.1-0.1,0.2-0.1
					C5225.7,2552.4,5225.8,2552.5,5225.8,2552.5z M5222.9,2552.5c-0.1,0-0.3,0.1-0.4,0.3c-0.2,0.1-0.3,0.3-0.4,0.5
					c0.2-0.1,0.4-0.2,0.6-0.3C5222.8,2552.7,5222.9,2552.6,5222.9,2552.5z"/>
				<path class="st6" d="M5227.1,2557.5L5227.1,2557.5c-0.1,0-0.2-0.1-0.2-0.1s0-0.1,0-0.2c0.3-1.2,0.7-2.5,1.1-3.8
					c0.4-1.3,0.9-2.5,1.5-3.8c0,0-0.1,0.1-0.1,0.1s-0.1,0.1-0.1,0.1c-0.7,0.9-1.2,1.7-1.7,2.3c-0.5,0.6-0.9,1.1-1.2,1.5
					c-0.3,0.4-0.6,0.7-0.8,0.8c-0.2,0.2-0.4,0.3-0.5,0.4c-0.1,0.1-0.2,0.1-0.3,0.1c-0.1,0-0.1,0-0.2-0.1c-0.1-0.1-0.2-0.2-0.2-0.4
					c0-0.2,0-0.3,0.1-0.5c0.1-0.2,0.1-0.4,0.2-0.5c0.1-0.2,0.2-0.3,0.2-0.4c0.2-0.3,0.4-0.5,0.6-0.7c0.2-0.2,0.4-0.2,0.7-0.3
					c0.2,0,0.3,0,0.4,0s0.2,0.1,0.3,0.2c0.3-0.3,0.6-0.7,0.9-1.2c0.3-0.5,0.7-1,1.1-1.6c0.6-0.8,1-1.5,1.3-1.9
					c0.3-0.5,0.5-0.8,0.7-1c0.1-0.2,0.2-0.3,0.2-0.3c0.1-0.1,0.1-0.1,0.2,0c0.1,0.1,0.1,0.1,0.1,0.2c0,0.1-0.1,0.2-0.1,0.3
					c-0.9,1.7-1.7,3.4-2.4,5.2c-0.7,1.8-1.3,3.5-1.7,5.3C5227.3,2557.4,5227.2,2557.5,5227.1,2557.5z M5226.3,2552.6L5226.3,2552.6
					c-0.3,0-0.6,0.3-0.9,0.7c-0.2,0.2-0.3,0.5-0.4,0.7s-0.1,0.4-0.1,0.4c0,0,0.1,0,0.2-0.1c0.1-0.1,0.2-0.1,0.3-0.3
					c0.1-0.1,0.3-0.3,0.5-0.5c0.2-0.2,0.4-0.5,0.7-0.8C5226.5,2552.7,5226.4,2552.6,5226.3,2552.6z"/>
				<path class="st6" d="M5234.2,2552.6c0,0,0.1,0.1,0,0.2c0,0.1,0,0.1-0.1,0.2c-0.4,0.3-0.8,0.6-1.1,0.8c-0.3,0.2-0.6,0.4-0.8,0.5
					c-0.2,0.1-0.4,0.2-0.6,0.2c-0.2,0-0.3,0.1-0.4,0.1c-0.2,0-0.3,0-0.4-0.1c-0.1-0.1-0.2-0.3-0.2-0.5c0-0.2,0-0.4,0.1-0.6
					c0.1-0.2,0.1-0.4,0.2-0.6c0.1-0.2,0.2-0.3,0.2-0.5c0-0.1,0.1-0.1,0.1-0.1c0.1,0,0.1,0,0.2,0c0.1,0.1,0.2,0.2,0.1,0.3
					c-0.1,0.2-0.2,0.4-0.3,0.5c-0.1,0.2-0.1,0.3-0.2,0.5c0,0.1-0.1,0.3-0.1,0.4c0,0.1,0,0.2,0,0.2c0.1,0,0.3,0,0.5-0.1
					c0.2-0.1,0.5-0.2,0.8-0.4c0.3-0.2,0.8-0.5,1.4-1C5234,2552.4,5234.1,2552.5,5234.2,2552.6z M5231.6,2551.8c0,0-0.1-0.1-0.1-0.1
					c0-0.1,0-0.1,0-0.2l0.2-0.3c0.1-0.1,0.2-0.1,0.3,0c0,0,0.1,0.1,0.1,0.2c0,0.1,0,0.1,0,0.2l-0.2,0.3c0,0.1-0.1,0.1-0.2,0.1
					S5231.6,2551.8,5231.6,2551.8z"/>
				<path class="st6" d="M5237.7,2552.5c0.1,0.1,0.1,0.2,0,0.3c0,0-0.1,0.1-0.4,0.3c-0.2,0.2-0.5,0.4-0.9,0.6
					c-0.3,0.2-0.7,0.4-1.2,0.6c-0.4,0.2-0.9,0.3-1.3,0.3c-0.2,0-0.3,0-0.5-0.1c-0.1-0.1-0.2-0.1-0.3-0.2c-0.1-0.1-0.1-0.1-0.1-0.2
					c0-0.1,0-0.1,0-0.2c0-0.2,0.1-0.4,0.2-0.6s0.3-0.4,0.5-0.6c0.2-0.2,0.4-0.4,0.6-0.5c0.2-0.1,0.4-0.2,0.5-0.2c0.1,0,0.1,0,0.2,0
					c0,0,0.1,0,0.1,0.1c0,0,0,0.1,0.1,0.1s0,0.1,0,0.2c0,0.1,0,0.2-0.1,0.4c-0.1,0.2-0.2,0.3-0.4,0.4c-0.2,0.1-0.3,0.3-0.5,0.4
					c-0.2,0.1-0.4,0.2-0.6,0.2c0,0,0,0.1,0,0.1c0,0,0,0.1,0,0.1c0,0,0.1,0.1,0.3,0.1c0.4,0,0.8-0.1,1.2-0.3c0.4-0.2,0.8-0.4,1.1-0.6
					c0.3-0.2,0.6-0.4,0.8-0.6c0.2-0.2,0.3-0.3,0.3-0.3c0,0,0.1-0.1,0.2-0.1C5237.6,2552.4,5237.6,2552.5,5237.7,2552.5z
					 M5234.8,2552.5c-0.1,0-0.3,0.1-0.4,0.3c-0.2,0.1-0.3,0.3-0.4,0.5c0.2-0.1,0.4-0.2,0.6-0.3
					C5234.6,2552.7,5234.8,2552.6,5234.8,2552.5z"/>
				<path class="st6" d="M5241,2552.6c0.1,0.1,0,0.2-0.1,0.3c-0.6,0.4-1.1,0.7-1.6,1.1c-0.5,0.4-1,0.7-1.3,1c0,0.4-0.1,0.7-0.3,1
					c-0.2,0.3-0.3,0.5-0.5,0.6c-0.1,0-0.1,0.1-0.2,0.1c-0.2,0-0.3-0.1-0.4-0.3c-0.1-0.2-0.1-0.4,0.1-0.7c0.2-0.3,0.5-0.6,0.9-0.9
					c0-0.1,0-0.3,0-0.4c0-0.1-0.1-0.3-0.1-0.4c-0.1-0.3-0.2-0.6-0.1-0.8c0-0.2,0.1-0.5,0.2-0.6c0.1-0.2,0.2-0.3,0.4-0.5
					c0.1-0.1,0.3-0.2,0.4-0.3c0.1-0.1,0.2,0,0.3,0.1c0,0,0,0.1,0,0.2c0,0.1-0.1,0.1-0.1,0.1c0,0-0.1,0.1-0.2,0.1
					c-0.1,0.1-0.2,0.2-0.3,0.3c-0.1,0.1-0.1,0.3-0.2,0.5c0,0.2,0,0.4,0.1,0.7c0.1,0.2,0.1,0.4,0.1,0.6c0.4-0.3,0.8-0.7,1.3-1
					c0.5-0.3,1-0.6,1.4-1C5240.8,2552.4,5240.9,2552.4,5241,2552.6z M5237.1,2556c0.1-0.1,0.2-0.3,0.2-0.4c-0.3,0.3-0.5,0.5-0.5,0.6
					l0,0v0c0,0,0,0,0.1,0C5237,2556.2,5237,2556.1,5237.1,2556z"/>
			</g>
		</g>
		<g>
			<defs>
				<rect id="SVGID_9_" x="5101.3" y="2463" width="199.5" height="128.8"/>
			</defs>
			<clipPath id="SVGID_10_">
				<use xlink:href="#SVGID_9_"  style="overflow:visible;"/>
			</clipPath>
			<g class="st7">
				<path class="st5" d="M5182.5,2527.7c-0.8,0-1.6,0-2.4,0c-0.1,0-0.2,0-0.2-0.2c0-0.1,0-0.2,0-0.3c0-0.1,0-0.1,0.1-0.1
					c0.2,0,0.4-0.1,0.5-0.2c0.1-0.1,0.2-0.2,0.3-0.3c0.2-0.2,0.2-0.4,0.2-0.6c0-2.7,0-5.4,0-8.1c0-0.2,0-0.3-0.1-0.4
					c-0.2-0.2-0.3-0.3-0.5-0.5c-0.1-0.1-0.2-0.1-0.4-0.1c-0.1,0-0.1,0-0.1-0.1c0-0.1,0-0.2,0-0.3c0-0.1,0-0.1,0.1-0.1
					c0,0,0.1,0,0.1,0c1.5,0,3,0,4.5,0c1.5,0,2.8,0.5,3.9,1.5c0.7,0.6,1.2,1.3,1.5,2.1c0.3,0.7,0.4,1.4,0.4,2.2
					c-0.1,1.5-0.7,2.7-1.7,3.8c-0.8,0.8-1.7,1.3-2.7,1.5c-0.4,0.1-0.9,0.2-1.4,0.2C5183.9,2527.7,5183.2,2527.7,5182.5,2527.7
					 M5183.5,2522c0,1.3,0,2.7,0,4c0,0.1,0,0.2,0.1,0.3c0.1,0.2,0.3,0.3,0.5,0.5c0.1,0.1,0.2,0.1,0.3,0.1c0.4,0,0.7,0,1.1-0.1
					c0.6-0.1,1.1-0.3,1.4-0.8c0.6-0.7,0.8-1.5,0.9-2.3c0.1-1.1,0.1-2.3,0-3.4c-0.1-0.6-0.2-1.2-0.5-1.7c-0.4-0.7-1-1.2-1.8-1.4
					c-0.4-0.1-0.9-0.1-1.3-0.1c0,0-0.1,0-0.1,0c-0.3,0.1-0.6,0.6-0.6,0.9C5183.5,2519.3,5183.5,2520.6,5183.5,2522"/>
				<path class="st5" d="M5150.2,2525.9c0-0.6,0-1.1,0-1.7c0-0.1,0-0.1,0.2-0.2c0.3,0,0.5,0,0.6,0.3c0.2,0.5,0.7,0.9,1.1,1.3
					c0.5,0.5,1,0.9,1.7,1.2c0.5,0.2,1,0.2,1.4,0.1c0.4-0.1,0.7-0.2,1-0.5c0.4-0.4,0.4-0.8,0.3-1.3c-0.1-0.5-0.5-0.9-0.9-1.1
					c-0.5-0.2-1-0.4-1.4-0.6c-0.9-0.4-1.8-0.8-2.6-1.4c-0.7-0.5-1.2-1.1-1.4-1.9c-0.4-1.6,0.3-3.2,1.9-3.8c0.6-0.3,1.3-0.3,2-0.2
					c0.4,0.1,0.7,0.2,1.1,0.3c0.4,0.1,0.8,0.2,1.2,0.1c0.2,0,0.3-0.1,0.5-0.2c0.1-0.1,0.2-0.1,0.3-0.1c0.4,0,0.3,0,0.3,0.4
					c0,1,0,2,0,3c0,0.1,0,0.2-0.2,0.2c-0.1,0-0.3,0-0.4,0c-0.1,0-0.1-0.2-0.2-0.3c-0.6-1-1.3-1.9-2.4-2.4c-0.6-0.3-1.3-0.3-1.9,0.1
					c-0.7,0.4-0.8,1.3-0.4,1.9c0.3,0.4,0.7,0.7,1.2,0.9c0.9,0.4,1.9,0.8,2.9,1.3c0.8,0.3,1.4,0.8,1.8,1.6c0.3,0.6,0.4,1.2,0.3,1.9
					c-0.2,1.4-0.9,2.4-2.3,2.9c-0.6,0.2-1.3,0.3-2,0.2c-0.4-0.1-0.7-0.2-1-0.3c-0.4-0.1-0.7-0.2-1.1-0.3c-0.4,0-0.7,0-1,0.4
					c0,0-0.1,0-0.1,0c-0.1,0-0.2,0-0.4,0c-0.1,0-0.1,0-0.1-0.1C5150.2,2527.1,5150.2,2526.5,5150.2,2525.9"/>
				<path class="st5" d="M5214.9,2516c0.1,0.3,0.2,0.6,0.3,0.8c0.5,1.3,1,2.5,1.6,3.8c0.5,1.3,1.1,2.6,1.6,3.9
					c0.2,0.5,0.4,0.9,0.6,1.4c0,0.1,0.1,0.1,0.1,0.2c0.3,0.3,0.6,0.5,0.9,0.8c0.1,0.1,0.2,0.1,0.3,0.1c0.1,0,0.1,0,0.1,0.1
					c0,0.1,0,0.2,0,0.3c0,0.1,0,0.1-0.1,0.1c0,0-0.1,0-0.1,0c-1.7,0-3.4,0-5.1,0c-0.2,0-0.2,0-0.2-0.2c0-0.1,0-0.2,0-0.2
					c0-0.1,0-0.2,0.1-0.1c0.1,0,0.2,0,0.3,0c0.2,0,0.3,0,0.4-0.2c0.2-0.2,0.4-0.5,0.6-0.8c0-0.1,0-0.1,0-0.2c-0.2-0.5-0.4-1-0.6-1.5
					c0-0.1-0.1-0.1-0.2-0.1c-1.1,0-2.2,0-3.3,0c-0.1,0-0.2,0-0.2,0.1c-0.2,0.5-0.4,1-0.6,1.5c0,0,0,0.1,0,0.2
					c0.1,0.3,0.3,0.6,0.5,0.8c0.1,0.1,0.2,0.1,0.3,0.1c0.1,0,0.2,0,0.3,0c0.1,0,0.1,0,0.1,0.1c0,0.1,0,0.2,0,0.3
					c0,0.1,0,0.1-0.1,0.1c-0.3,0-0.7,0-1,0c-0.8,0-1.6,0-2.5,0c-0.1,0-0.2,0-0.2-0.2c0-0.1,0-0.2,0-0.3c0-0.1,0-0.1,0.1-0.1
					c0.1,0,0.2,0,0.3-0.1c0.3-0.2,0.6-0.5,0.8-0.7c0.2-0.2,0.3-0.4,0.4-0.7c0.6-1.6,1.2-3.2,1.8-4.8c0.5-1.2,0.9-2.4,1.4-3.6
					c0-0.1,0.1-0.2,0.1-0.3c0.1-0.2,0.2-0.4,0.4-0.5C5214.5,2516.3,5214.7,2516.2,5214.9,2516 M5215.3,2523.5
					c-0.5-1.4-1-2.7-1.5-4.1c0,0,0,0-0.1,0c-0.5,1.3-1,2.7-1.5,4.1H5215.3L5215.3,2523.5z"/>
				<path class="st5" d="M5246.9,2516c0.2,0.4,0.3,0.7,0.5,1.1c0.5,1.2,1,2.4,1.4,3.5c0.5,1.2,1,2.5,1.5,3.7
					c0.2,0.5,0.4,1.1,0.7,1.6c0,0.1,0.1,0.2,0.1,0.2c0.3,0.3,0.6,0.5,0.9,0.8c0.1,0.1,0.2,0.1,0.3,0.1c0.1,0,0.1,0,0.1,0.2
					c0,0.1,0,0.2,0,0.3c0,0.1,0,0.1-0.1,0.1c0,0,0,0-0.1,0c-1.7,0-3.4,0-5.1,0c-0.2,0-0.2,0-0.2-0.2c0-0.4,0-0.4,0.4-0.4
					c0.2,0,0.3,0,0.5-0.2c0.2-0.2,0.4-0.4,0.5-0.7c0-0.1,0-0.1,0-0.2c-0.2-0.5-0.4-1-0.6-1.5c0-0.1-0.1-0.1-0.2-0.1
					c-1.1,0-2.2,0-3.4,0c-0.1,0-0.1,0-0.2,0.1c-0.2,0.5-0.4,1-0.6,1.5c0,0,0,0.1,0,0.1c0.1,0.3,0.3,0.6,0.6,0.8
					c0.1,0.1,0.2,0.1,0.3,0.1c0.4,0,0.4,0,0.4,0.4c0,0.2,0,0.2-0.2,0.2c-1.1,0-2.3,0-3.4,0c-0.1,0-0.2,0-0.2-0.2c0-0.1,0-0.2,0-0.3
					c0,0,0.1-0.1,0.1-0.1c0.2,0,0.4-0.1,0.5-0.2c0.2-0.1,0.3-0.2,0.4-0.4c0.4-0.3,0.5-0.7,0.7-1.1c0.3-0.8,0.6-1.5,0.8-2.3
					c0.4-1,0.7-1.9,1.1-2.9c0.4-1.1,0.8-2.2,1.2-3.2c0,0,0-0.1,0-0.1c0.1-0.3,0.3-0.6,0.6-0.7
					C5246.5,2516.2,5246.7,2516.1,5246.9,2516 M5244.2,2523.5C5244.3,2523.5,5244.3,2523.6,5244.2,2523.5c1,0,2,0,3,0
					c0.1,0,0.1,0,0.1-0.1c-0.2-0.4-0.3-0.9-0.5-1.3c-0.3-0.8-0.6-1.5-0.9-2.3c0-0.1-0.1-0.3-0.2-0.4c0,0,0,0-0.1,0
					C5245.2,2520.8,5244.7,2522.2,5244.2,2523.5"/>
				<path class="st5" d="M5233.5,2524.3v-0.2v-7.2c0-0.2,0-0.2,0.2-0.2c0.5,0,1,0,1.5,0c0.2,0,0.2,0,0.2,0.2c0,3.4,0,6.7,0,10.1
					c0,0.2,0,0.4,0,0.5c0,0.1,0,0.1-0.1,0.1c-0.6,0-1.2,0-1.8,0c-0.1,0-0.1,0-0.2-0.1c-0.6-1-1.2-2-1.8-2.9
					c-0.9-1.4-1.8-2.8-2.6-4.2c-0.2-0.3-0.3-0.5-0.5-0.8c0,0,0-0.1-0.1-0.1v0.2c0,2.6,0,5.2,0,7.7c0,0.2,0,0.2-0.2,0.2
					c-0.5,0-1,0-1.6,0c-0.2,0-0.2,0-0.2-0.2v-7.9c0-0.9,0-1.8,0-2.7c0-0.2,0-0.2,0.2-0.2c0.7,0,1.4,0,2.2,0c0.1,0,0.2,0,0.2,0.1
					c1.1,1.8,2.2,3.7,3.4,5.5c0.4,0.6,0.7,1.2,1.1,1.8C5233.4,2524.2,5233.4,2524.3,5233.5,2524.3
					C5233.4,2524.3,5233.5,2524.3,5233.5,2524.3"/>
				<path class="st5" d="M5173.3,2520.5c0,0.9,0,1.9,0,2.8c0,0.5,0,0.9-0.1,1.4c-0.2,1.1-0.9,2-1.9,2.5c-0.5,0.3-1.1,0.4-1.7,0.5
					c-0.5,0-0.9,0.1-1.4,0c-1.2-0.1-2.2-0.6-2.9-1.6c-0.5-0.7-0.8-1.5-0.8-2.4c0-2.3,0-4.6,0-6.9c0-0.1,0-0.2,0.2-0.2
					c0.6,0,1.1,0,1.7,0c0.2,0,0.2,0,0.2,0.2c0,2.2,0,4.5,0,6.7c0,0.5,0.1,1,0.4,1.5c0.4,0.5,0.9,0.8,1.5,0.9
					c0.4,0.1,0.8,0.1,1.2-0.1c0.7-0.2,1.2-0.6,1.4-1.3c0.1-0.3,0.2-0.7,0.2-1c0-2.2,0-4.5,0-6.7c0-0.2,0-0.2,0.2-0.2
					c0.5,0,1.1,0,1.6,0c0.2,0,0.2,0,0.2,0.2C5173.3,2518.1,5173.3,2519.3,5173.3,2520.5"/>
				<path class="st5" d="M5200.1,2516.7h4.5c0.2,0,0.2,0,0.2,0.2c0,0.5,0,0.9,0,1.4c0,0.1,0,0.2-0.2,0.2c-1.1,0-2.2,0-3.3,0
					c-0.2,0-0.2,0-0.2,0.2c0,2.9,0,5.9,0,8.8c0,0.2,0,0.2-0.2,0.2c-0.6,0-1.1,0-1.7,0c-0.1,0-0.2,0-0.2-0.2c0-2.9,0-5.9,0-8.8
					c0-0.2,0-0.2-0.2-0.2c-1.1,0-2.1,0-3.2,0c-0.1,0-0.2,0-0.2-0.2c0-0.5,0-1,0-1.4c0-0.1,0-0.1,0.1-0.1
					C5197.1,2516.7,5198.6,2516.7,5200.1,2516.7"/>
			</g>
		</g>
	</g>
</g>
</svg>
