<?xml version="1.0" encoding="utf-8"?>
<!-- Generator: Adobe Illustrator 25.0.0, SVG Export Plug-In . SVG Version: 6.00 Build 0)  -->
<svg version="1.1" id="Layer_1" xmlns="http://www.w3.org/2000/svg" xmlns:xlink="http://www.w3.org/1999/xlink" x="0px" y="0px"
	 viewBox="0 0 25 25" style="enable-background:new 0 0 25 25;" xml:space="preserve">
<style type="text/css">
	.st0{fill:#4F5D31;}
</style>
<desc>Created using Figma</desc>
<g id="Canvas" transform="translate(-4909 -2651)">
	<g id="noun_555068_cc">
		<g id="Vector">
			<g transform="translate(4909 2651)">
				<path id="path0_fill" class="st0" d="M4921.5,2676c-6.9,0-12.5-5.6-12.5-12.5s5.6-12.5,12.5-12.5s12.5,5.6,12.5,12.5
					S4928.4,2676,4921.5,2676z M4924.1,2665.06c-0.68,0.55-1.21,1.25-1.55,2.05c-2.1-0.93-3.74-2.56-4.68-4.59
					c0.81-0.41,1.51-0.94,2.05-1.61c-0.14-1.51-0.92-2.81-2.06-3.65c-1.52,0.55-2.58,1.97-2.62,3.63c0.12,4.75,3.86,8.59,8.56,8.86
					c1.77-0.02,3.27-1.07,3.93-2.58c-0.83-1.18-2.13-1.96-3.61-2.11L4924.1,2665.06z"/>
			</g>
		</g>
	</g>
</g>
</svg>
