<?xml version="1.0" encoding="utf-8"?>
<!-- Generator: Adobe Illustrator 25.0.0, SVG Export Plug-In . SVG Version: 6.00 Build 0)  -->
<svg version="1.1" id="Layer_1" xmlns="http://www.w3.org/2000/svg" xmlns:xlink="http://www.w3.org/1999/xlink" x="0px" y="0px"
	 viewBox="0 0 25 25" style="enable-background:new 0 0 25 25;" xml:space="preserve">
<style type="text/css">
	.st0{fill:#4F5D31;}
</style>
<desc>Created using Figma</desc>
<g id="Canvas" transform="translate(-4909 -2597)">
	<g id="noun_99709_cc">
		<g id="Vector">
			<g transform="translate(4909 2597)">
				<path id="path0_fill" class="st0" d="M4921.5,2597c6.9,0,12.5,5.6,12.5,12.5s-5.6,12.5-12.5,12.5c-6.9,0-12.5-5.6-12.5-12.5
					S4914.6,2597,4921.5,2597z M4929.02,2613.62l0-8.04l-4.79,3.3L4929.02,2613.62z M4923.44,2609.32l-1.71,1.14
					c-0.07,0.05-0.16,0.07-0.24,0.07c-0.08,0-0.17-0.02-0.24-0.07l-1.75-1.18l-4.94,4.89h13.86L4923.44,2609.32z M4918.77,2608.78
					l-4.78-3.22v8.03L4918.77,2608.78z M4921.49,2609.57l6.94-4.66h-13.85L4921.49,2609.57z"/>
			</g>
		</g>
	</g>
</g>
</svg>
