<?xml version="1.0" encoding="utf-8"?>
<!-- Generator: Adobe Illustrator 25.0.0, SVG Export Plug-In . SVG Version: 6.00 Build 0)  -->
<svg version="1.1" id="Layer_1" xmlns="http://www.w3.org/2000/svg" xmlns:xlink="http://www.w3.org/1999/xlink" x="0px" y="0px"
	 viewBox="0 0 25 25" style="enable-background:new 0 0 25 25;" xml:space="preserve">
<style type="text/css">
	.st0{fill:#4F5D31;}
</style>
<desc>Created using Figma</desc>
<g id="Canvas" transform="translate(-4909 -2651)">
	<g id="noun_555068_cc">
		<g id="Vector">
			<g transform="translate(4909 2651)">
				<path id="path0_fill" class="st0" d="M12.5,25C5.6,25,0,19.4,0,12.5S5.6,0,12.5,0S25,5.6,25,12.5S19.4,25,12.5,25z M15.1,14.1
					c-0.7,0.6-1.2,1.2-1.5,2.1c-2.1-0.9-3.7-2.6-4.7-4.6c0.8-0.4,1.5-0.9,2-1.6C10.8,8.4,10,7.1,8.9,6.3c-1.5,0.6-2.6,2-2.6,3.6
					c0.1,4.8,3.9,8.6,8.6,8.9c1.8,0,3.3-1.1,3.9-2.6C17.9,15,16.6,14.2,15.1,14.1L15.1,14.1z"/>
			</g>
		</g>
	</g>
</g>
</svg>
