<?xml version="1.0" encoding="utf-8"?>
<!-- Generator: Adobe Illustrator 25.0.0, SVG Export Plug-In . SVG Version: 6.00 Build 0)  -->
<svg version="1.1" id="Layer_1" xmlns="http://www.w3.org/2000/svg" xmlns:xlink="http://www.w3.org/1999/xlink" x="0px" y="0px"
	 viewBox="0 0 25 25" style="enable-background:new 0 0 25 25;" xml:space="preserve">
<style type="text/css">
	.st0{fill-rule:evenodd;clip-rule:evenodd;fill:#4F5D31;}
</style>
<desc>Created using Figma</desc>
<g id="Canvas" transform="translate(-4909 -2705)">
	<g id="noun_376853_cc">
		<g id="Group">
			<g id="Vector">
				<g transform="translate(4909 2705)">
					<path id="path0_fill" class="st0" d="M4921.5,2705c-3.32,0-6.49,1.32-8.84,3.66s-3.66,5.52-3.66,8.84s1.32,6.49,3.66,8.84
						s5.52,3.66,8.84,3.66s6.49-1.32,8.84-3.66s3.66-5.52,3.66-8.84s-1.32-6.49-3.66-8.84S4924.82,2705,4921.5,2705L4921.5,2705z
						 M4921.5,2709.5c4.41,0,8,3.59,8,8s-3.59,8-8,8s-8-3.59-8-8S4917.09,2709.5,4921.5,2709.5z M4921.5,2710.5
						c-0.23,0-0.48,0.12-0.77,0.43s-0.58,0.81-0.83,1.45c-0.23,0.6-0.42,1.32-0.56,2.12h4.34c-0.14-0.8-0.33-1.52-0.56-2.12
						c-0.25-0.64-0.54-1.14-0.83-1.45S4921.73,2710.5,4921.5,2710.5z M4919.6,2710.77c-1.96,0.55-3.56,1.93-4.42,3.73h3.13
						c0.15-0.93,0.38-1.77,0.66-2.48C4919.15,2711.54,4919.36,2711.13,4919.6,2710.77z M4923.4,2710.77
						c0.24,0.36,0.45,0.78,0.64,1.25c0.28,0.72,0.5,1.56,0.66,2.48h3.13C4926.96,2712.69,4925.36,2711.32,4923.4,2710.77z
						 M4914.79,2715.5c-0.19,0.63-0.29,1.3-0.29,2c0,0.7,0.1,1.37,0.29,2h3.39c-0.07-0.64-0.12-1.3-0.12-2s0.05-1.36,0.12-2H4914.79
						z M4919.2,2715.5c-0.07,0.64-0.12,1.3-0.12,2c0,0.7,0.05,1.36,0.12,2h4.61c0.07-0.64,0.12-1.3,0.12-2c0-0.7-0.05-1.36-0.12-2
						H4919.2z M4924.81,2715.5c0.07,0.64,0.12,1.3,0.12,2s-0.05,1.36-0.12,2h3.39c0.19-0.63,0.29-1.3,0.29-2c0-0.7-0.1-1.37-0.29-2
						H4924.81z M4915.18,2720.5c0.86,1.81,2.46,3.18,4.42,3.73c-0.24-0.36-0.45-0.77-0.63-1.25c-0.28-0.72-0.5-1.56-0.66-2.49
						H4915.18z M4919.33,2720.5c0.14,0.8,0.33,1.53,0.56,2.12c0.25,0.64,0.54,1.14,0.83,1.45s0.54,0.43,0.77,0.43
						s0.48-0.11,0.77-0.43s0.58-0.81,0.83-1.45c0.23-0.6,0.42-1.32,0.56-2.12H4919.33z M4924.69,2720.5
						c-0.15,0.93-0.38,1.77-0.66,2.49c-0.18,0.47-0.4,0.89-0.63,1.25c1.96-0.55,3.56-1.93,4.42-3.73H4924.69z"/>
				</g>
			</g>
		</g>
	</g>
</g>
</svg>
