<?xml version="1.0" encoding="utf-8"?>
<!-- Generator: Adobe Illustrator 25.0.0, SVG Export Plug-In . SVG Version: 6.00 Build 0)  -->
<svg version="1.1" id="Layer_1" xmlns="http://www.w3.org/2000/svg" xmlns:xlink="http://www.w3.org/1999/xlink" x="0px" y="0px"
	 viewBox="0 0 25 25" style="enable-background:new 0 0 25 25;" xml:space="preserve">
<style type="text/css">
	.st0{fill:#4F5D31;}
</style>
<desc>Created using Figma</desc>
<g id="Canvas" transform="translate(-4909 -2597)">
	<g id="noun_99709_cc">
		<g id="Vector">
			<g transform="translate(4909 2597)">
				<path id="path0_fill" class="st0" d="M12.5,0C19.4,0,25,5.6,25,12.5S19.4,25,12.5,25S0,19.4,0,12.5S5.6,0,12.5,0z M20,16.6v-8
					l-4.8,3.3L20,16.6z M14.4,12.3l-1.7,1.1c-0.1,0.1-0.2,0.1-0.2,0.1s-0.2,0-0.2-0.1l-1.8-1.2l-4.9,4.9h13.9L14.4,12.3z M9.8,11.8
					L5,8.6v8L9.8,11.8z M12.5,12.6l6.9-4.7H5.6L12.5,12.6z"/>
			</g>
		</g>
	</g>
</g>
</svg>
