<?xml version="1.0" encoding="utf-8"?>
<!-- Generator: Adobe Illustrator 25.0.0, SVG Export Plug-In . SVG Version: 6.00 Build 0)  -->
<svg version="1.1" id="Layer_1" xmlns="http://www.w3.org/2000/svg" xmlns:xlink="http://www.w3.org/1999/xlink" x="0px" y="0px"
	 viewBox="0 0 25 25" style="enable-background:new 0 0 25 25;" xml:space="preserve">
<style type="text/css">
	.st0{fill-rule:evenodd;clip-rule:evenodd;fill:#4F5D31;}
</style>
<desc>Created using Figma</desc>
<g id="Canvas" transform="translate(-4909 -2705)">
	<g id="noun_376853_cc">
		<g id="Group">
			<g id="Vector">
				<g transform="translate(4909 2705)">
					<path id="path0_fill" class="st0" d="M12.5,0C9.2,0,6,1.3,3.7,3.7S0,9.2,0,12.5s1.3,6.5,3.7,8.8S9.2,25,12.5,25
						s6.5-1.3,8.8-3.7s3.7-5.5,3.7-8.8S23.7,6,21.3,3.7S15.8,0,12.5,0L12.5,0z M12.5,4.5c4.4,0,8,3.6,8,8s-3.6,8-8,8s-8-3.6-8-8
						S8.1,4.5,12.5,4.5z M12.5,5.5c-0.2,0-0.5,0.1-0.8,0.4s-0.6,0.8-0.8,1.4c-0.2,0.6-0.4,1.3-0.6,2.1h4.3c-0.1-0.8-0.3-1.5-0.6-2.1
						c-0.2-0.6-0.5-1.1-0.8-1.4S12.7,5.5,12.5,5.5z M10.6,5.8C8.6,6.3,7,7.7,6.2,9.5h3.1C9.5,8.6,9.7,7.7,10,7
						C10.1,6.5,10.4,6.1,10.6,5.8z M14.4,5.8C14.6,6.1,14.9,6.6,15,7c0.3,0.7,0.5,1.6,0.7,2.5h3.1C18,7.7,16.4,6.3,14.4,5.8z
						 M5.8,10.5c-0.2,0.6-0.3,1.3-0.3,2s0.1,1.4,0.3,2h3.4c-0.1-0.6-0.1-1.3-0.1-2s0-1.4,0.1-2H5.8z M10.2,10.5
						c-0.1,0.6-0.1,1.3-0.1,2s0,1.4,0.1,2h4.6c0.1-0.6,0.1-1.3,0.1-2s0-1.4-0.1-2H10.2z M15.8,10.5c0.1,0.6,0.1,1.3,0.1,2
						s0,1.4-0.1,2h3.4c0.2-0.6,0.3-1.3,0.3-2s-0.1-1.4-0.3-2H15.8z M6.2,15.5c0.9,1.8,2.5,3.2,4.4,3.7c-0.2-0.4-0.5-0.8-0.6-1.2
						c-0.3-0.7-0.5-1.6-0.7-2.5L6.2,15.5L6.2,15.5z M10.3,15.5c0.1,0.8,0.3,1.5,0.6,2.1c0.2,0.6,0.5,1.1,0.8,1.4s0.5,0.4,0.8,0.4
						s0.5-0.1,0.8-0.4s0.6-0.8,0.8-1.4c0.2-0.6,0.4-1.3,0.6-2.1H10.3z M15.7,15.5c-0.1,0.9-0.4,1.8-0.7,2.5
						c-0.2,0.5-0.4,0.9-0.6,1.2c2-0.6,3.6-1.9,4.4-3.7L15.7,15.5L15.7,15.5z"/>
				</g>
			</g>
		</g>
	</g>
</g>
</svg>
